<?xml version="1.0" standalone="no"?>
<!DOCTYPE svg PUBLIC "-//W3C//DTD SVG 1.1//EN" "http://www.w3.org/Graphics/SVG/1.1/DTD/svg11.dtd" >
<svg xmlns="http://www.w3.org/2000/svg" xmlns:xlink="http://www.w3.org/1999/xlink" version="1.1">
<metadata>
Created by FontForge 20201107 at Mon Mar 25 15:58:45 2024
 By 
Copyright (c) Feliciano Type Foundry, 2004. All rights reserved.
</metadata>
<defs>
<font id="FlamaBlack" horiz-adv-x="1024" >
  <font-face 
    font-family="FlamaBlack"
    font-weight="500"
    font-stretch="normal"
    units-per-em="2048"
    panose-1="0 0 0 0 0 0 0 0 0 0"
    ascent="1638"
    descent="-410"
    x-height="1104"
    cap-height="1460"
    bbox="-78 -410 2615 2001"
    underline-thickness="40"
    underline-position="-224"
    unicode-range="U+0020-FB02"
  />
<missing-glyph horiz-adv-x="2048" 
 />
    <glyph glyph-name=".notdef" horiz-adv-x="2048" 
 />
    <glyph glyph-name=".null" horiz-adv-x="0" 
 />
    <glyph glyph-name="nonmarkingreturn" horiz-adv-x="682" 
 />
    <glyph glyph-name="space" unicode=" " horiz-adv-x="491" 
 />
    <glyph glyph-name="exclam" unicode="!" horiz-adv-x="659" 
d="M551 934l-98 -440h-246l-98 440v526h442v-526zM541 0h-422v397h422v-397z" />
    <glyph glyph-name="quotedbl" unicode="&#x22;" horiz-adv-x="1060" 
d="M930 1174l-49 -375h-236l-49 375v311h334v-311zM465 1174l-49 -375h-236l-49 375v311h334v-311z" />
    <glyph glyph-name="numbersign" unicode="#" horiz-adv-x="1304" 
d="M1231 963l-27 -195h-219l-47 -307h227l-26 -197h-232l-43 -284h-192l41 284h-219l-48 -284h-192l47 284h-227l35 197h219l49 307h-236l35 195h225l41 262h195l-37 -262h219l41 262h193l-41 -262h219zM791 768h-222l-45 -307h217z" />
    <glyph glyph-name="dollar" unicode="$" horiz-adv-x="1257" 
d="M1192 502q0 -95 -32 -173t-89 -130.5t-124.5 -86t-147.5 -51.5v-153h-289v139q-133 10 -244 43.5t-215 104.5l201 297q78 -57 170 -96.5t178 -39.5q145 0 145 70q0 33 -19 49t-54 27q-40 10 -49 12l-215 61q-142 40 -226 136t-84 237q0 163 111 287.5t301 159.5v135h289
v-133q100 -12 179 -41t171 -84l-223 -281q-53 42 -131.5 67t-141.5 25q-137 0 -137 -71q0 -33 24.5 -47.5t65.5 -22.5q39 -8 81 -19.5t94.5 -28t80.5 -24.5q161 -44 245.5 -139t84.5 -229z" />
    <glyph glyph-name="percent" unicode="%" horiz-adv-x="1906" 
d="M1829 248q0 -70 -31 -124t-82 -84.5t-108 -45t-117 -14.5q-62 0 -119.5 13.5t-109.5 43t-83.5 84t-31.5 127.5v319q0 72 30 126.5t80.5 85t108.5 45t121 14.5t120.5 -15t109 -45.5t82 -86.5t30.5 -130v-313zM1499 1470l-858 -1486h-233l858 1486h233zM760 893
q0 -70 -31 -124t-82 -84.5t-108 -45t-117 -14.5q-62 0 -119.5 13.5t-109.5 43t-83.5 84t-31.5 127.5v319q0 72 30 127t80 85.5t107.5 45.5t120.5 15q50 0 97 -9t92.5 -30t79 -52t54.5 -79.5t21 -108.5v-313zM1561 252v323q0 24 -19.5 41t-52.5 17q-34 0 -54 -17t-20 -41
v-327q0 -25 19 -43.5t55 -18.5q35 0 53.5 20t18.5 46zM492 897v324q0 24 -20.5 40.5t-53.5 16.5q-34 0 -53 -16.5t-19 -40.5v-328q0 -25 19 -43.5t55 -18.5q35 0 53.5 20t18.5 46z" />
    <glyph glyph-name="ampersand" unicode="&#x26;" horiz-adv-x="1740" 
d="M1729 -2h-570l-90 102q-93 -65 -218 -101t-255 -36q-143 0 -262 48.5t-195 150.5t-76 241q0 78 32.5 146.5t86.5 118t114 84t126 55.5q-54 54 -96.5 130t-42.5 138q0 194 141 302t414 108q213 0 344 -98t131 -261q0 -252 -285 -360l127 -141q4 13 11 34t12 41.5t12 61.5
l328 -31q-18 -124 -44.5 -206t-72.5 -165zM979 1120q0 38 -33.5 66t-75.5 28q-57 0 -84.5 -27t-27.5 -73q0 -9 4 -20t9 -21.5t14.5 -25t16.5 -24t19.5 -25.5t18 -22.5t18 -21t14.5 -16.5q46 24 76.5 74.5t30.5 107.5zM864 324l-266 297q-88 -58 -88 -185q0 -70 47 -120
t137 -50q99 0 170 58z" />
    <glyph glyph-name="quotesingle" unicode="'" horiz-adv-x="595" 
d="M465 1174l-49 -375h-236l-49 375v311h334v-311z" />
    <glyph glyph-name="parenleft" unicode="(" horiz-adv-x="737" 
d="M666 -365h-177q-141 177 -229 443t-88 545q0 265 85.5 520.5t231.5 437.5h177q-102 -270 -142.5 -477.5t-40.5 -480.5q0 -522 183 -988z" />
    <glyph glyph-name="parenright" unicode=")" horiz-adv-x="737" 
d="M565 623q0 -279 -88 -545t-229 -443h-176q182 463 182 988q0 274 -40 481.5t-142 476.5h176q146 -182 231.5 -437.5t85.5 -520.5z" />
    <glyph glyph-name="asterisk" unicode="*" horiz-adv-x="950" 
d="M887 1235l-244 -129l162 -219l-168 -103l-162 222l-164 -222l-164 103l158 219l-242 129l101 158l211 -111v217h200v-217l209 111z" />
    <glyph glyph-name="plus" unicode="+" horiz-adv-x="1232" 
d="M1139 541h-414v-414h-215v414h-416v213h416v415h215v-415h414v-213z" />
    <glyph glyph-name="comma" unicode="," horiz-adv-x="626" 
d="M524 25l-157 -314h-193l74 289h-146v395h422v-370z" />
    <glyph glyph-name="hyphen" unicode="-" horiz-adv-x="741" 
d="M686 449h-631v272h631v-272z" />
    <glyph glyph-name="period" unicode="." horiz-adv-x="626" 
d="M524 0h-422v397h422v-397z" />
    <glyph glyph-name="slash" unicode="/" horiz-adv-x="757" 
d="M743 1487l-501 -1559h-240l508 1559h233z" />
    <glyph glyph-name="zero" unicode="0" horiz-adv-x="1314" 
d="M1249 444q0 -99 -36 -180.5t-95 -134t-136.5 -88t-157.5 -51t-162 -15.5q-85 0 -165.5 14t-160 48.5t-138.5 86.5t-95.5 134.5t-36.5 185.5v566q0 101 34.5 183t91.5 135.5t134 89.5t158.5 51.5t168.5 15.5q86 0 167.5 -15.5t160.5 -52.5t137.5 -91t94.5 -138.5
t36 -188.5v-555zM793 451v575q0 45 -38 76t-98 31q-61 0 -98 -31.5t-37 -77.5v-580q0 -48 36 -82t101 -34t99.5 37.5t34.5 85.5z" />
    <glyph glyph-name="one" unicode="1" horiz-adv-x="1101" 
d="M1022 0h-901v299h250v795l-246 -9v304l450 90h222v-1180h225v-299z" />
    <glyph glyph-name="two" unicode="2" horiz-adv-x="1253" 
d="M1178 0h-1053v242l373 424q23 25 70.5 77t67.5 75.5t47 61t37.5 68t10.5 62.5v22q0 117 -119 117q-118 0 -118 -158v-45h-414v88q0 145 74 247.5t199 151t290 48.5q253 0 386.5 -124t133.5 -327q0 -41 -11.5 -84.5t-27 -80t-44.5 -80.5t-52 -74t-62.5 -73t-62 -66
t-64 -64t-57.5 -57l-90 -93v-4h486v-354z" />
    <glyph glyph-name="three" unicode="3" horiz-adv-x="1265" 
d="M1208 410q0 -82 -25 -150t-69.5 -114.5t-100.5 -80.5t-123 -53t-131 -28t-130 -9q-262 0 -408.5 110.5t-146.5 326.5v51h420v-39q0 -59 34.5 -85t110.5 -26q53 0 85 37.5t32 100.5q0 37 -19.5 64t-49.5 40t-57.5 19t-51.5 6h-76v290h84q81 0 120 28t39 106
q0 61 -34.5 93.5t-89.5 32.5q-69 0 -95 -27.5t-26 -74.5v-39h-416v51q0 202 146.5 323.5t398.5 121.5q251 0 394.5 -112t143.5 -308q0 -118 -59 -201t-160 -116v-13q120 -29 190 -116.5t70 -208.5z" />
    <glyph glyph-name="four" unicode="4" horiz-adv-x="1296" 
d="M1253 303h-131v-303h-422v303h-637v320l531 837h528v-819h131v-338zM700 641v428h-10l-289 -428h299z" />
    <glyph glyph-name="five" unicode="5" horiz-adv-x="1255" 
d="M1198 406q0 -84 -32 -155t-87.5 -121t-129 -85.5t-155.5 -52.5t-169 -17q-154 0 -275.5 41.5t-196.5 129.5t-75 210v105h416v-33q0 -47 33.5 -78t105.5 -31q131 0 131 130v98q0 54 -37 86.5t-100 32.5q-67 0 -121 -62l-387 45l37 811h944v-354h-602l-9 -244
q129 84 312 84q57 0 111.5 -11t107 -38t91.5 -66.5t63 -101.5t24 -139v-184z" />
    <glyph glyph-name="six" unicode="6" horiz-adv-x="1286" 
d="M1229 401q0 -103 -49 -186t-131.5 -134.5t-186.5 -78.5t-219 -27q-111 0 -213 29.5t-184 84t-131 141.5t-49 194v606q0 108 50 196.5t134 144t190 85t222 29.5q248 0 394 -108t146 -300v-80h-420v43q0 52 -34 78.5t-91 26.5q-61 0 -97 -31t-36 -84v-201q158 95 328 95
q177 0 277 -95t100 -241v-187zM795 426v121q0 40 -26 66t-56.5 35t-61.5 9q-52 0 -89.5 -31t-37.5 -110v-86q0 -51 35 -82t96 -31q64 0 102 31.5t38 77.5z" />
    <glyph glyph-name="seven" unicode="7" horiz-adv-x="1261" 
d="M1200 1159l-555 -1159h-452l542 1108h-645v352h1110v-301z" />
    <glyph glyph-name="eight" unicode="8" horiz-adv-x="1284" 
d="M1221 371q0 -124 -79 -215.5t-208.5 -136t-290.5 -44.5q-128 0 -230 22t-182.5 69t-124 128t-43.5 191v70q0 93 48 166.5t120 111.5q-64 30 -104.5 103t-40.5 147v82q0 99 44 179.5t119.5 132.5t175 80t212.5 28q115 0 215.5 -26.5t177.5 -76.5t121.5 -130.5t44.5 -182.5
v-78q0 -84 -39.5 -152.5t-101.5 -105.5q68 -32 117 -106.5t49 -157.5v-98zM778 981v68q0 59 -40 86.5t-99 27.5q-56 0 -94.5 -24.5t-38.5 -69.5v-92q0 -50 36.5 -76.5t98.5 -26.5q64 0 100.5 27.5t36.5 79.5zM778 399v68q0 59 -40 87t-99 28q-56 0 -94.5 -25t-38.5 -70v-92
q0 -49 37 -75.5t98 -26.5q64 0 100.5 27t36.5 79z" />
    <glyph glyph-name="nine" unicode="9" horiz-adv-x="1286" 
d="M1229 428q0 -108 -50 -196.5t-134 -144t-190 -85t-222 -29.5q-249 0 -395 108t-146 300v80h420v-43q0 -52 34 -78.5t91 -26.5q61 0 97 31t36 84v219q-104 -112 -328 -112q-177 0 -276.5 94.5t-99.5 240.5v187q0 83 32 153.5t87.5 120.5t130 85t159.5 52t176 17
q88 0 172 -18.5t157.5 -56t129 -90t87.5 -126.5t32 -160v-606zM770 954v86q0 51 -35 82t-96 31q-64 0 -101.5 -31.5t-37.5 -77.5v-124q0 -58 42 -85.5t91 -27.5q52 0 94.5 34t42.5 113z" />
    <glyph glyph-name="colon" unicode=":" horiz-adv-x="626" 
d="M524 709h-422v397h422v-397zM524 0h-422v397h422v-397z" />
    <glyph glyph-name="semicolon" unicode=";" horiz-adv-x="626" 
d="M524 709h-422v397h422v-397zM524 25l-157 -314h-193l74 289h-146v395h422v-370z" />
    <glyph glyph-name="less" unicode="&#x3c;" horiz-adv-x="1232" 
d="M1090 354l-97 -192l-850 405v162l846 408l96 -195l-620 -293z" />
    <glyph glyph-name="equal" unicode="=" horiz-adv-x="1232" 
d="M1139 727h-1045v215h1045v-215zM1139 324h-1045v213h1045v-213z" />
    <glyph glyph-name="greater" unicode="&#x3e;" horiz-adv-x="1232" 
d="M1090 567l-850 -405l-97 192l625 295l-621 293l97 195l846 -408v-162z" />
    <glyph glyph-name="question" unicode="?" horiz-adv-x="1173" 
d="M1126 1065q0 -115 -51 -196t-141 -144q-14 -10 -44 -26.5t-52 -30.5t-45 -32.5t-35.5 -41.5t-12.5 -49v-51h-378v49q0 87 30 144t99 118q21 18 68 53t75.5 57.5t53 57t24.5 67.5q0 47 -34 77t-87 30q-62 0 -107 -29t-45 -80v-41h-374v66q0 83 30.5 153t82.5 118.5
t121.5 82t146.5 49t159 15.5q248 0 382 -110t134 -306zM764 0h-422v397h422v-397z" />
    <glyph glyph-name="at" unicode="@" horiz-adv-x="1908" 
d="M1767 827q0 -157 -63.5 -297.5t-182.5 -229.5t-264 -89q-69 0 -124 38.5t-82 94.5q-127 -127 -250 -127q-55 0 -98.5 21.5t-68.5 54.5t-41.5 77t-22 83t-5.5 79q0 130 56 245.5t164 189t243 73.5h326l-107 -538q1 -30 20 -46t44 -16q54 0 98.5 38.5t71.5 98.5t42 128.5
t15 132.5q0 79 -26.5 147t-73 117.5t-109 84.5t-135 52.5t-150.5 17.5q-193 0 -347 -92t-238 -248t-84 -346q0 -173 82 -297t216.5 -183.5t305.5 -59.5q162 0 297.5 35t322.5 114l58 -207q-139 -71 -320 -117t-372 -46q-169 0 -318 51.5t-262 146.5t-178.5 240.5
t-65.5 322.5q0 189 69 356.5t189 288t290 190t364 69.5q147 0 276 -43.5t227 -124.5t154.5 -205t56.5 -275zM1071 831h-57q-76 0 -137.5 -81t-61.5 -172q0 -70 12 -92q16 -29 54 -29q26 0 47.5 9.5t37.5 30.5t26.5 37.5t19.5 48t12.5 44t9.5 41.5z" />
    <glyph glyph-name="A" unicode="A" horiz-adv-x="1536" 
d="M1524 0h-461l-70 233h-485l-70 -233h-426l494 1462h534zM893 571l-139 473h-6l-140 -473h285z" />
    <glyph glyph-name="B" unicode="B" horiz-adv-x="1458" 
d="M1405 414q0 -80 -27 -152.5t-78.5 -131.5t-136 -94.5t-190.5 -35.5h-867v1460h861q106 0 189 -29.5t132.5 -80.5t75 -115.5t25.5 -138.5q0 -116 -60.5 -214.5t-173.5 -133.5v-7q118 -31 184 -122.5t66 -204.5zM932 1024q0 43 -33.5 72.5t-95.5 29.5h-240v-229h236
q66 0 99.5 37.5t33.5 89.5zM934 469q0 48 -37 79.5t-102 31.5h-232v-236h240q63 0 97 37.5t34 87.5z" />
    <glyph glyph-name="C" unicode="C" horiz-adv-x="1394" 
d="M1337 453q0 -100 -37 -182t-98.5 -136t-143 -91t-167.5 -53t-176 -16q-101 0 -193 18t-176 59.5t-145.5 103.5t-98 156.5t-36.5 211.5v424q0 108 35.5 198t96.5 152t143.5 104.5t175 62.5t192.5 20q90 0 176.5 -16t169 -53.5t144.5 -92t100 -137.5t38 -185v-90h-430v47
q0 81 -55.5 125.5t-130.5 44.5q-90 0 -141.5 -48t-51.5 -138v-416q0 -93 49.5 -143.5t143.5 -50.5q75 0 130.5 44.5t55.5 125.5v47h430v-96z" />
    <glyph glyph-name="D" unicode="D" horiz-adv-x="1433" 
d="M1368 530q0 -138 -49 -242.5t-135.5 -166t-193.5 -91.5t-234 -30h-654v1460h650q102 0 192 -17.5t168.5 -56t135 -95.5t88.5 -140.5t32 -187.5v-433zM905 541v381q0 82 -52.5 131t-141.5 49h-150v-746h160q89 0 136.5 55t47.5 130z" />
    <glyph glyph-name="E" unicode="E" horiz-adv-x="1333" 
d="M1239 0h-1137v1460h1137v-354h-678v-201h537v-352h-537v-197h678v-356z" />
    <glyph glyph-name="F" unicode="F" horiz-adv-x="1288" 
d="M1239 1106h-678v-221h537v-357h-537v-528h-459v1460h1137v-354z" />
    <glyph glyph-name="G" unicode="G" horiz-adv-x="1394" 
d="M1350 453q0 -100 -38.5 -182t-101.5 -136t-147 -91t-171 -53t-177 -16q-102 0 -194 18t-176 59.5t-145 103.5t-97.5 156.5t-36.5 211.5v424q0 108 35.5 198t96.5 152t143.5 104.5t175 62.5t192.5 20q90 0 177.5 -16t172 -53.5t148 -92t102.5 -137.5t39 -185v-61h-430v35
q0 81 -55.5 125.5t-131.5 44.5q-91 0 -147 -48.5t-56 -138.5v-432q0 -95 50 -151t143 -56q186 0 186 164v39h-213v297h656v-366z" />
    <glyph glyph-name="H" unicode="H" horiz-adv-x="1490" 
d="M1389 0h-459v539h-369v-539h-459v1460h459v-526h369v526h459v-1460z" />
    <glyph glyph-name="I" unicode="I" horiz-adv-x="663" 
d="M561 0h-459v1460h459v-1460z" />
    <glyph glyph-name="J" unicode="J" horiz-adv-x="1363" 
d="M1266 522q0 -257 -157.5 -402t-434.5 -145q-151 0 -261.5 25.5t-194 83t-125.5 156.5t-42 241v62h436v-56q0 -159 160 -159q88 0 124 47t36 117v968h459v-938z" />
    <glyph glyph-name="K" unicode="K" horiz-adv-x="1447" 
d="M1436 0h-484l-262 559l-129 -168v-391h-459v1460h459v-647l426 647h445l-404 -598z" />
    <glyph glyph-name="L" unicode="L" horiz-adv-x="1280" 
d="M1239 0h-1137v1460h459v-1104h678v-356z" />
    <glyph glyph-name="M" unicode="M" horiz-adv-x="1781" 
d="M1679 0h-413v887h-4l-224 -662h-290l-228 662h-6v-887h-412v1460h574l217 -602l217 602h569v-1460z" />
    <glyph glyph-name="N" unicode="N" horiz-adv-x="1544" 
d="M1442 0h-414l-508 717h-4v-717h-414v1460h445l477 -655h4v655h414v-1460z" />
    <glyph glyph-name="O" unicode="O" horiz-adv-x="1437" 
d="M1372 543q0 -121 -37 -219t-99 -162t-147.5 -107t-177 -61.5t-192.5 -18.5q-105 0 -197 17t-177.5 58.5t-146 105t-96.5 162t-36 223.5v374q0 115 35 210.5t95.5 161t143 111t176.5 66.5t197 21q104 0 197 -18t179 -60t147.5 -106t98.5 -163t37 -223v-372zM909 532v398
q0 94 -55.5 145t-136.5 51q-189 0 -189 -196v-389q0 -100 49 -153.5t144 -53.5q88 0 138 53t50 145z" />
    <glyph glyph-name="P" unicode="P" horiz-adv-x="1419" 
d="M1354 979q0 -79 -18 -151.5t-58.5 -139.5t-100 -116.5t-149 -79t-199.5 -29.5h-268v-463h-459v1460h727q132 0 235 -40.5t165 -109t93.5 -153t31.5 -178.5zM907 956q0 66 -42 113t-120 47h-184v-319h182q76 0 120 47t44 112z" />
    <glyph glyph-name="Q" unicode="Q" horiz-adv-x="1437" 
d="M1438 201l-181 -246l-155 113q-85 -53 -174 -73t-209 -20q-105 0 -197 17t-177.5 58.5t-146 105t-96.5 162t-36 223.5v374q0 115 35 210.5t95.5 161t143 111t176.5 66.5t197 21q104 0 197 -18t179 -60t147.5 -106t98.5 -163t37 -223v-372q0 -140 -53 -256zM909 584v346
q0 94 -55.5 145t-136.5 51q-189 0 -189 -196v-389q0 -100 49 -153.5t144 -53.5q23 0 59 8l-135 96l162 221z" />
    <glyph glyph-name="R" unicode="R" horiz-adv-x="1439" 
d="M1397 0h-504l-236 483h-96v-483h-459v1460h701q141 0 249 -38t172 -103.5t96 -147.5t32 -176q0 -141 -66 -257.5t-196 -178.5zM905 956q0 66 -42 113t-120 47h-182v-319h180q76 0 120 46.5t44 112.5z" />
    <glyph glyph-name="S" unicode="S" horiz-adv-x="1316" 
d="M1274 479q0 -89 -26 -164.5t-71.5 -129.5t-104.5 -95.5t-129.5 -66t-141.5 -36.5t-144 -12q-205 0 -355 33.5t-290 130.5l217 320q81 -62 185.5 -106t203.5 -44q31 0 57.5 3.5t53.5 12t43 26t16 42.5t-9 43t-29 29.5t-38 18t-50 14.5q-2 1 -3 1q-1 -1 -14 3l-242 67
q-156 43 -249 149t-93 261q0 101 42 192.5t117 160.5t188 110t247 41q193 0 314.5 -33t253.5 -111l-242 -301q-56 44 -145 72.5t-158 28.5q-164 0 -164 -88q0 -14 4 -25.5t14.5 -20t20 -15t29 -13t32.5 -10t39.5 -10.5t42.5 -11l211 -59q180 -51 273.5 -156t93.5 -252z" />
    <glyph glyph-name="T" unicode="T" horiz-adv-x="1368" 
d="M1323 1106h-408v-1106h-462v1106h-408v354h1278v-354z" />
    <glyph glyph-name="U" unicode="U" horiz-adv-x="1484" 
d="M1386 541q0 -139 -53.5 -249.5t-145 -179t-208 -104t-248.5 -35.5q-306 0 -469.5 138t-163.5 419v930h459v-913q0 -106 55 -161.5t144 -55.5q83 0 134.5 58t51.5 159v913h444v-919z" />
    <glyph glyph-name="V" unicode="V" horiz-adv-x="1417" 
d="M1407 1460l-465 -1462h-483l-449 1462h459l246 -985h8l258 985h426z" />
    <glyph glyph-name="W" unicode="W" horiz-adv-x="2017" 
d="M2001 1460l-356 -1462h-435l-204 815h-9l-211 -815h-411l-359 1462h451l174 -760h6l180 760h412l166 -760h2l170 760h424z" />
    <glyph glyph-name="X" unicode="X" horiz-adv-x="1429" 
d="M1427 0h-485l-248 457l-233 -457h-459l428 756l-397 704h489l219 -420l213 420h445l-400 -715z" />
    <glyph glyph-name="Y" unicode="Y" horiz-adv-x="1396" 
d="M1401 1460l-473 -893v-567h-461v569l-471 891h469l254 -524l258 524h424z" />
    <glyph glyph-name="Z" unicode="Z" horiz-adv-x="1345" 
d="M1268 1155l-596 -799h588v-356h-1186v264l639 842h-619v354h1174v-305z" />
    <glyph glyph-name="bracketleft" unicode="[" horiz-adv-x="737" 
d="M662 1333h-197v-1507h194v-180h-487v1872h490v-185z" />
    <glyph glyph-name="backslash" unicode="\" horiz-adv-x="757" 
d="M752 -72h-240l-502 1559h234z" />
    <glyph glyph-name="bracketright" unicode="]" horiz-adv-x="737" 
d="M565 -354h-487v180h194v1507h-196v185h489v-1872z" />
    <glyph glyph-name="asciicircum" unicode="^" horiz-adv-x="1583" 
d="M1468 0h-1353v1460h1353v-1460z" />
    <glyph glyph-name="underscore" unicode="_" 
d="M1024 -287h-1024v164h1024v-164z" />
    <glyph glyph-name="grave" unicode="`" horiz-adv-x="686" 
d="M584 1212h-201l-281 349h316z" />
    <glyph glyph-name="a" unicode="a" horiz-adv-x="1236" 
d="M1167 0h-395l-12 143h-12q-31 -50 -79 -86t-99.5 -52.5t-92.5 -23t-78 -6.5q-154 0 -251 81t-97 231q0 87 38.5 155.5t98 108.5t139 66t153 35.5t149.5 9.5h94v71q0 50 -34.5 81.5t-100.5 31.5q-71 0 -100 -35t-29 -80v-24h-377v49q0 115 75 201t196.5 128.5t271.5 42.5
q102 0 193 -23.5t166.5 -71t120 -128t44.5 -184.5v-471q0 -88 18 -250zM723 395v70h-76q-77 0 -120.5 -23t-43.5 -82q0 -98 111 -98q43 0 86 35.5t43 97.5z" />
    <glyph glyph-name="b" unicode="b" horiz-adv-x="1273" 
d="M1212 346q0 -159 -123.5 -266t-304.5 -107q-73 0 -143.5 30.5t-122.5 92.5h-4v-96h-420v1460h426v-483h4q58 74 137.5 113.5t165.5 39.5q186 0 285.5 -104.5t99.5 -282.5v-397zM786 410v266q0 69 -36.5 107t-87.5 38q-63 0 -102.5 -35t-39.5 -133v-252q0 -40 14 -69.5
t36.5 -44t44.5 -21t44 -6.5q56 0 91.5 39.5t35.5 110.5z" />
    <glyph glyph-name="c" unicode="c" horiz-adv-x="1196" 
d="M1147 348q0 -92 -44 -165t-119.5 -118t-169.5 -68.5t-200 -23.5q-81 0 -157 14t-149 48t-127 84.5t-87 129.5t-33 177v225q0 98 33 179.5t87.5 136t126.5 92t149 54.5t157 17q105 0 200 -26t169.5 -74t119 -123.5t44.5 -167.5v-69h-412v43q0 59 -30.5 88.5t-83.5 29.5
q-63 0 -96 -34.5t-33 -100.5v-284q0 -67 33.5 -103.5t95.5 -36.5q53 0 83.5 29.5t30.5 89.5v43h412v-86z" />
    <glyph glyph-name="d" unicode="d" horiz-adv-x="1271" 
d="M1178 0h-416v135h-8q-59 -77 -140.5 -118.5t-167.5 -41.5q-186 0 -285.5 103.5t-99.5 281.5v398q0 160 117.5 266t296.5 106q76 0 151.5 -27.5t123.5 -82.5h4v440h424v-1460zM754 444v258q0 75 -44 108.5t-94 33.5q-54 0 -91.5 -42t-37.5 -122v-244q0 -70 38 -110.5
t89 -40.5q58 0 99 39.5t41 119.5z" />
    <glyph glyph-name="e" unicode="e" horiz-adv-x="1191" 
d="M1130 455h-641v-31q0 -52 36.5 -86t81.5 -45.5t95 -11.5q118 0 332 61l68 -270q-229 -99 -473 -99q-88 0 -168 14.5t-154 49t-128 86t-86 130.5t-32 177v195q0 104 33 190t88 143.5t129 97t153.5 57t164.5 17.5q100 0 189.5 -30t159.5 -86t111 -145.5t41 -200.5v-213z
M739 674v43q0 60 -34.5 93.5t-92.5 33.5q-55 0 -89 -35t-34 -92v-43h250z" />
    <glyph glyph-name="f" unicode="f" horiz-adv-x="839" 
d="M801 784h-203v-784h-424v784h-131v295h131v92q0 72 23 129t60 93t87.5 60t102 34t106.5 10q132 0 196 -15q23 -5 44 -12v-251q-62 8 -117 8q-34 0 -56 -19.5t-22 -52.5v-76h203v-295z" />
    <glyph glyph-name="g" unicode="g" horiz-adv-x="1284" 
d="M1190 125q0 -134 -46 -237t-129 -166.5t-191 -96.5t-238 -35q-281 15 -496 95l117 305q174 -60 348 -60q209 0 209 176v93h-4q-62 -72 -132.5 -99.5t-162.5 -27.5q-187 0 -289 102.5t-102 278.5v297q0 160 124 270t304 110q73 0 150 -29t124 -81h4v86h410v-981zM764 532
v156q0 32 -10 57.5t-25.5 41t-35.5 25.5t-37.5 13.5t-34.5 3.5q-53 0 -87 -40.5t-34 -120.5v-146q0 -70 36 -106.5t93 -36.5q58 0 96.5 36.5t38.5 116.5z" />
    <glyph glyph-name="h" unicode="h" horiz-adv-x="1294" 
d="M1212 0h-426v649q0 162 -135 162q-54 0 -92.5 -48.5t-38.5 -135.5v-627h-426v1460h426v-510h4q65 94 149.5 137t198.5 43q47 0 93 -10t91.5 -34t79.5 -59t55 -89t21 -121v-817z" />
    <glyph glyph-name="i" unicode="i" horiz-adv-x="614" 
d="M520 1204h-426v281h426v-281zM520 0h-426v1104h426v-1104z" />
    <glyph glyph-name="j" unicode="j" horiz-adv-x="647" 
d="M561 1204h-426v281h426v-281zM561 -43q0 -89 -32.5 -158t-87 -110t-120.5 -61.5t-139 -20.5q-75 0 -176 16v295q16 -4 57 -4q72 0 72 78v1114h426v-1149z" />
    <glyph glyph-name="k" unicode="k" horiz-adv-x="1230" 
d="M1219 1104l-269 -387l260 -717h-454l-146 440l-90 -116v-324h-426v1460h426v-768l283 412h416z" />
    <glyph glyph-name="l" unicode="l" horiz-adv-x="718" 
d="M670 14q-119 -39 -234 -39q-160 0 -257 76t-97 219v1190h428v-1057q0 -39 15 -57t65 -18q18 0 80 8v-322z" />
    <glyph glyph-name="m" unicode="m" horiz-adv-x="1986" 
d="M1905 0h-426v649q0 162 -136 162q-54 0 -92.5 -48.5t-38.5 -135.5v-627h-426v649q0 162 -135 162q-54 0 -92.5 -48.5t-38.5 -135.5v-627h-426v1106h418v-156h4q125 180 356 180q48 0 93.5 -9t90.5 -28.5t81 -56t55 -86.5h6q125 180 367 180q47 0 93 -10t91.5 -34
t79.5 -59t55 -89t21 -121v-817z" />
    <glyph glyph-name="n" unicode="n" horiz-adv-x="1294" 
d="M1212 0h-426v649q0 162 -135 162q-54 0 -92.5 -48.5t-38.5 -135.5v-627h-426v1106h418v-143h4q131 167 356 167q47 0 93 -10t91.5 -34t79.5 -59t55 -89t21 -121v-817z" />
    <glyph glyph-name="o" unicode="o" horiz-adv-x="1228" 
d="M1167 430q0 -98 -33.5 -177.5t-88 -130t-127.5 -84.5t-148.5 -48.5t-155.5 -14.5q-83 0 -158 12.5t-148.5 45t-127 82t-86.5 130t-33 183.5v225q0 98 31 179t83.5 135.5t123.5 91.5t148.5 54t160.5 17t159.5 -14t151 -48.5t128.5 -86.5t87 -134t33 -185v-232zM737 412
v274q0 61 -34 101t-89 40q-61 0 -91.5 -40.5t-30.5 -106.5v-272q0 -132 124 -132q61 0 91 37.5t30 98.5z" />
    <glyph glyph-name="p" unicode="p" horiz-adv-x="1273" 
d="M1212 346q0 -159 -123.5 -266t-304.5 -107q-70 0 -143.5 31.5t-116.5 83.5h-4v-465h-426v1483h418v-139h4q59 77 142 120t169 43q186 0 285.5 -104.5t99.5 -282.5v-397zM786 401v273q0 70 -36.5 108.5t-87.5 38.5q-63 0 -102.5 -35t-39.5 -133v-252q0 -40 13.5 -69.5
t35.5 -44t43 -21t43 -6.5q54 0 92.5 36t38.5 105z" />
    <glyph glyph-name="q" unicode="q" horiz-adv-x="1273" 
d="M1180 -377h-426v510h-4q-131 -158 -301 -158q-187 0 -287.5 103t-100.5 280v390q0 172 116 277t298 105q76 0 155.5 -31.5t135.5 -94.5h4v102h410v-1483zM754 444v258q0 75 -44 108.5t-94 33.5q-54 0 -91.5 -42t-37.5 -122v-244q0 -70 38 -110.5t89 -40.5q58 0 99 39.5
t41 119.5z" />
    <glyph glyph-name="r" unicode="r" horiz-adv-x="966" 
d="M954 756q-112 16 -192 16q-35 0 -61.5 -2t-63 -13t-60 -29.5t-40.5 -55t-17 -86.5v-586h-426v1106h418v-182h2q44 79 129 137.5t184 58.5q83 0 127 -12v-352z" />
    <glyph glyph-name="s" unicode="s" horiz-adv-x="1148" 
d="M1100 369q0 -82 -32.5 -149.5t-85 -112t-122.5 -75t-142.5 -44t-146.5 -13.5q-171 0 -289.5 24.5t-244.5 102.5l176 271q70 -49 159.5 -84t168.5 -35q127 0 127 51q0 20 -14 34t-28 19.5t-36 10.5q-18 3 -33 6l-209 59q-134 38 -202 111t-68 192q0 163 133.5 278
t357.5 115q161 0 260 -25t222 -89l-205 -248q-56 38 -128.5 60t-127.5 22q-123 0 -123 -55q0 -32 33 -43q21 -7 60.5 -14t47.5 -9l176 -45q153 -40 234.5 -121t81.5 -194z" />
    <glyph glyph-name="t" unicode="t" horiz-adv-x="884" 
d="M829 784h-227v-372q0 -36 18.5 -59t69.5 -23q76 0 131 8v-315q-155 -46 -289 -46q-68 0 -126.5 14.5t-112.5 48.5t-85.5 100.5t-31.5 160.5v483h-133v295h133v291h426v-291h227v-295z" />
    <glyph glyph-name="u" unicode="u" horiz-adv-x="1318" 
d="M1221 0h-418v166h-4q-132 -191 -357 -191q-47 0 -93 10t-91.5 33.5t-79.5 58.5t-55 89t-21 121v817h426v-649q0 -162 136 -162q54 0 92.5 48.5t38.5 135.5v627h426v-1104z" />
    <glyph glyph-name="v" unicode="v" horiz-adv-x="1222" 
d="M1214 1104l-374 -1106h-441l-391 1106h455l178 -635h10l183 635h380z" />
    <glyph glyph-name="w" unicode="w" horiz-adv-x="1837" 
d="M1446 1104h383q-46 -144 -346 -1106h-383l-172 643h-6l-179 -643h-387l-344 1106h432l138 -569h12l147 569h406l147 -569h11z" />
    <glyph glyph-name="x" unicode="x" horiz-adv-x="1198" 
d="M1192 2h-455l-178 311l-174 -311h-379l342 563l-328 539h453l162 -289l160 289h374l-323 -537z" />
    <glyph glyph-name="y" unicode="y" horiz-adv-x="1228" 
d="M1231 1104l-402 -1155q-33 -94 -84.5 -161.5t-115.5 -105t-132 -54.5t-145 -17q-88 0 -200 22v310q67 -17 145 -17q41 0 73 16t42 44l8 22l-402 1096h455l182 -637h9l186 637h381z" />
    <glyph glyph-name="z" unicode="z" horiz-adv-x="1155" 
d="M1073 0h-991v256l481 541h-469v307h979q-2 -86 -2 -262l-469 -531h471v-311z" />
    <glyph glyph-name="braceleft" unicode="{" horiz-adv-x="737" 
d="M659 -354h-264q-103 0 -164 67t-61 195v518q0 77 -18 106t-74 35v170q64 11 78 30.5t14 78.5v409q0 128 61 195.5t164 67.5h264v-183h-147q-45 0 -45 -47v-389q0 -101 -28.5 -157t-98.5 -83v-12q78 -32 102.5 -79t24.5 -156v-537q0 -47 45 -47h147v-182z" />
    <glyph glyph-name="bar" unicode="|" horiz-adv-x="671" 
d="M463 -82h-254v1567h254v-1567z" />
    <glyph glyph-name="braceright" unicode="}" horiz-adv-x="737" 
d="M659 567q-56 -6 -74 -35t-18 -106v-518q0 -128 -61 -195t-164 -67h-264v182h147q45 0 45 47v537q0 109 24.5 156t102.5 79v12q-70 27 -98.5 83t-28.5 157v389q0 47 -45 47h-147v183h264q103 0 164 -67.5t61 -195.5v-409q0 -59 14 -78.5t78 -30.5v-170z" />
    <glyph glyph-name="asciitilde" unicode="~" horiz-adv-x="1583" 
d="M1468 0h-1353v1460h1353v-1460zM1290 178v1104h-997v-1104h997z" />
    <glyph glyph-name="nbspace" unicode="&#xa0;" horiz-adv-x="512" 
 />
    <glyph glyph-name="exclamdown" unicode="&#xa1;" horiz-adv-x="659" 
d="M541 733h-422v397h422v-397zM551 -330h-442v527l98 440h246l98 -440v-527z" />
    <glyph glyph-name="cent" unicode="&#xa2;" horiz-adv-x="1220" 
d="M1167 418q0 -98 -52 -174.5t-136 -121t-195 -63.5v-155h-292v155q-84 15 -155 46.5t-130 83.5t-92 131t-33 178v200q0 100 33.5 182t91.5 137.5t129.5 91.5t155.5 54v164h292v-164q169 -31 276 -129t107 -246v-57h-395v31q0 67 -35.5 101t-95.5 34q-69 0 -106 -40
t-37 -112v-262q0 -73 36.5 -114t106.5 -41q60 0 95.5 34t35.5 101v31h395v-76z" />
    <glyph glyph-name="sterling" unicode="&#xa3;" horiz-adv-x="1333" 
d="M1280 338l-70 -338h-1124v338h162v246h-113v235h113v219q0 99 33.5 177.5t87 128t125 82.5t142 46t144.5 13q72 0 139.5 -14.5t130 -46t109 -77t74 -113t27.5 -149.5v-108h-363v59q0 54 -29 84.5t-86 30.5q-56 0 -85 -35.5t-29 -79.5v-217h327v-235h-327v-246h612z" />
    <glyph glyph-name="currency" unicode="&#xa4;" horiz-adv-x="1550" 
d="M1493 453q0 -100 -37.5 -182t-98.5 -136t-143 -91t-168 -53t-176 -16q-97 0 -182.5 16.5t-164 54.5t-136 95t-94 142.5t-43.5 193.5h-172v201h170v121h-170v200h172q9 121 62.5 216t138.5 153t190 87.5t223 29.5q90 0 176.5 -16t169.5 -53.5t145 -92t100 -137.5t38 -185
v-90h-430v47q0 81 -55.5 125.5t-130.5 44.5q-141 0 -162 -129h262v-200h-266v-121h266v-201h-264q8 -72 46.5 -108.5t117.5 -36.5q75 0 130.5 44.5t55.5 125.5v47h430v-96z" />
    <glyph glyph-name="yen" unicode="&#xa5;" horiz-adv-x="1396" 
d="M1401 1460l-391 -737h286v-225h-368v-498h-461v498h-367v225h285l-389 737h469l254 -524l258 524h424z" />
    <glyph glyph-name="brokenbar" unicode="&#xa6;" 
 />
    <glyph glyph-name="section" unicode="&#xa7;" horiz-adv-x="1130" 
d="M1030 205q0 -167 -131.5 -275t-347.5 -108q-59 0 -117 9.5t-118.5 34t-106 61.5t-74.5 98t-29 137v71h275v-38q0 -57 44 -95.5t140 -38.5q94 0 139.5 38.5t45.5 78.5q0 14 -3.5 25.5t-13.5 21t-16.5 16t-24 13.5t-23 9.5t-26 9.5t-22.5 8l-195 57q-299 86 -299 321
q0 148 104 242q-104 79 -104 232q0 161 120 256.5t326 95.5q195 0 316 -87.5t121 -252.5v-66h-269v54q0 44 -42.5 79t-135.5 35q-80 0 -117.5 -29t-37.5 -71q0 -17 20.5 -33t42.5 -25t54.5 -19.5t37.5 -12.5l176 -64q48 -17 79 -30.5t74.5 -40t69.5 -56.5t45 -76.5
t19 -103.5q0 -159 -102 -248q106 -93 106 -233zM748 649q0 25 -21.5 43t-75.5 35q-106 33 -157 47q-84 -34 -84 -102q0 -7 3 -14t9 -13t12 -10.5t16.5 -9.5t17.5 -8t19.5 -7t17.5 -5.5t17 -5t13 -3.5q49 -12 135 -39q41 16 59.5 41.5t18.5 50.5z" />
    <glyph glyph-name="dieresis" unicode="&#xa8;" horiz-adv-x="983" 
d="M858 1219h-280v305h280v-305zM406 1219h-281v305h281v-305z" />
    <glyph glyph-name="copyright" unicode="&#xa9;" horiz-adv-x="1894" 
d="M1790 711q0 -170 -62 -323.5t-170.5 -268t-268.5 -181.5t-345 -67q-192 0 -352 66.5t-266 181t-164 266.5t-58 324q0 170 62.5 323t172 266t267 179.5t338.5 66.5q188 0 348 -66t268.5 -179t169 -265t60.5 -323zM1577 711q0 150 -51.5 277.5t-139 212.5t-202 133
t-240.5 48q-128 0 -242 -47.5t-199 -132.5t-134.5 -213t-49.5 -280q0 -151 52 -278.5t138.5 -211.5t199 -131t235.5 -47q122 0 236.5 48t202.5 132.5t141 212.5t53 277zM1389 535q0 -69 -26.5 -125t-69.5 -92t-100 -61t-116 -35.5t-119 -10.5q-68 0 -131 12t-121.5 40
t-101 69.5t-68.5 106t-26 143.5v272q0 91 38 162.5t101.5 114t141.5 64.5t163 22q61 0 120 -10.5t116.5 -35.5t101 -61.5t70.5 -93.5t27 -127v-76h-322v47q0 44 -30 68t-74 24q-111 0 -111 -102v-268q0 -109 111 -109q44 0 74 25t30 69v47h322v-79z" />
    <glyph glyph-name="ordfeminine" unicode="&#xaa;" horiz-adv-x="931" 
d="M821 764h-262l-8 90q-39 -59 -104 -82.5t-121 -23.5q-100 0 -164 52t-64 148q0 57 25.5 101.5t64 70t90 42t98.5 22.5t95 6h55v39q0 29 -20.5 48t-59.5 19q-77 0 -77 -67v-21h-250v35q0 112 101 176t249 64q66 0 124.5 -15t108 -45t78.5 -81.5t29 -118.5v-297
q0 -66 12 -162zM799 459h-649v188h649v-188zM526 1018v39h-43q-98 0 -98 -62q0 -57 66 -57q25 0 50 21.5t25 58.5z" />
    <glyph glyph-name="guillemotleft" unicode="&#xab;" horiz-adv-x="1329" 
d="M1305 242l-189 -158l-479 444l479 449l184 -164l-307 -285zM692 242l-188 -158l-479 444l479 449l184 -164l-307 -285z" />
    <glyph glyph-name="logicalnot" unicode="&#xac;" horiz-adv-x="1171" 
d="M1059 317l-150 -153l-323 332l-324 -332l-149 153l321 332l-321 336l149 154l324 -334l323 332l150 -152l-322 -334z" />
    <glyph glyph-name="registered" unicode="&#xae;" horiz-adv-x="1083" 
d="M952 1190q0 -112 -50.5 -206.5t-145.5 -151t-215 -56.5q-124 0 -219 57.5t-143 150.5t-48 206q0 172 116.5 292t293.5 120q183 0 297 -119.5t114 -292.5zM840 1190q0 143 -87.5 232t-211.5 89q-126 0 -211.5 -88t-85.5 -233q0 -143 88 -231.5t209 -88.5t210 89t89 231z
M758 1001h-133q-12 18 -15 43l-4 50q-1 24 -11 33.5t-32 9.5h-67v-136h-136v398h246q131 0 131 -107q0 -36 -18 -61t-49 -33v-6q61 -17 67 -76l4 -51q3 -46 17 -57v-7zM600 1268q0 35 -35 35h-69v-76h71q33 0 33 41z" />
    <glyph glyph-name="macron" unicode="&#xaf;" horiz-adv-x="886" 
d="M834 1231h-781v207h781v-207z" />
    <glyph glyph-name="degree" unicode="&#xb0;" horiz-adv-x="620" 
d="M514 1311q0 -85 -60 -145t-143 -60q-93 0 -147.5 59t-54.5 138q0 83 58 143.5t144 60.5q92 0 147.5 -57.5t55.5 -138.5zM387 1305q0 35 -20.5 60.5t-55.5 25.5q-32 0 -52.5 -24.5t-20.5 -61.5q0 -35 21 -58.5t52 -23.5t53.5 23.5t22.5 58.5z" />
    <glyph glyph-name="plusminus" unicode="&#xb1;" 
 />
    <glyph glyph-name="twosuperior" unicode="&#xb2;" 
 />
    <glyph glyph-name="threesuperior" unicode="&#xb3;" 
 />
    <glyph glyph-name="acute" unicode="&#xb4;" horiz-adv-x="686" 
d="M584 1561l-281 -349h-201l166 349h316z" />
    <glyph glyph-name="mu" unicode="&#xb5;" 
 />
    <glyph glyph-name="paragraph" unicode="&#xb6;" horiz-adv-x="1271" 
d="M1190 1272h-88v-1456h-234v1456h-133v-1456h-231v600q-102 12 -178.5 59.5t-121 120t-66 157t-21.5 179.5q0 132 52 251.5t153.5 198t230.5 78.5h637v-188z" />
    <glyph glyph-name="periodcentered" unicode="&#xb7;" horiz-adv-x="626" 
d="M524 623h-422v397h422v-397z" />
    <glyph glyph-name="cedilla" unicode="&#xb8;" horiz-adv-x="745" 
d="M647 -223q0 -60 -48 -102t-112.5 -59t-136.5 -17q-99 0 -237 32v129q137 -28 223 -28q76 0 76 41q0 15 -12.5 23.5t-27.5 10.5t-33 3h-7l-111 6l60 213h153l-28 -107q241 5 241 -145z" />
    <glyph glyph-name="onesuperior" unicode="&#xb9;" 
 />
    <glyph glyph-name="ordmasculine" unicode="&#xba;" horiz-adv-x="931" 
d="M829 1047q0 -79 -33 -139t-87.5 -93t-115.5 -49t-126 -16q-54 0 -103.5 8t-98 29t-84 53.5t-57.5 84.5t-22 119v146q0 79 31 140t83 97t115 54t132 18t130.5 -16t116 -49.5t87 -95t32.5 -144.5v-147zM799 459h-649v188h649v-188zM541 1034v176q0 37 -21 60.5t-53 23.5
q-38 0 -57 -24t-19 -64v-174q0 -80 76 -80q37 0 55.5 22.5t18.5 59.5z" />
    <glyph glyph-name="guillemotright" unicode="&#xbb;" horiz-adv-x="1329" 
d="M1305 532l-480 -448l-184 164l307 284l-311 287l188 158zM692 532l-479 -448l-184 164l307 284l-311 287l188 158z" />
    <glyph glyph-name="onequarter" unicode="&#xbc;" 
 />
    <glyph glyph-name="onehalf" unicode="&#xbd;" 
 />
    <glyph glyph-name="threequarters" unicode="&#xbe;" 
 />
    <glyph glyph-name="questiondown" unicode="&#xbf;" horiz-adv-x="1173" 
d="M846 733h-422v397h422v-397zM1118 68q0 -83 -30.5 -153t-82.5 -118.5t-121.5 -82t-146.5 -49t-159 -15.5q-248 0 -382.5 110.5t-134.5 305.5q0 115 51.5 196t141.5 144q14 10 44 26.5t51.5 30.5t44.5 32.5t35.5 41.5t12.5 49v51h379v-49q0 -87 -30 -144t-99 -118
q-21 -18 -68.5 -53t-75.5 -58t-52.5 -57.5t-24.5 -67.5q0 -47 34 -76.5t87 -29.5q62 0 106.5 28.5t44.5 79.5v41h375v-65z" />
    <glyph glyph-name="Agrave" unicode="&#xc0;" horiz-adv-x="1536" 
d="M872 1565h-200l-281 348h316zM1524 0h-461l-70 233h-485l-70 -233h-426l494 1462h534zM893 571l-139 473h-6l-140 -473h285z" />
    <glyph glyph-name="Aacute" unicode="&#xc1;" horiz-adv-x="1536" 
d="M1147 1913l-281 -348h-200l165 348h316zM1524 0h-461l-70 233h-485l-70 -233h-426l494 1462h534zM893 571l-139 473h-6l-140 -473h285z" />
    <glyph glyph-name="Acircumflex" unicode="&#xc2;" horiz-adv-x="1536" 
d="M1104 1556h-240l-94 193l-98 -193h-240l219 365h230zM1524 0h-461l-70 233h-485l-70 -233h-426l494 1462h534zM893 571l-139 473h-6l-140 -473h285z" />
    <glyph glyph-name="Atilde" unicode="&#xc3;" horiz-adv-x="1536" 
d="M1186 1837q-37 -274 -240 -274q-60 0 -174 30.5t-174 30.5q-45 0 -64.5 -18.5t-37.5 -71.5l-146 31q20 123 80 200.5t172 77.5q60 0 172 -31.5t172 -31.5q38 0 60 22t41 68zM1524 0h-461l-70 233h-485l-70 -233h-426l494 1462h534zM893 571l-139 473h-6l-140 -473h285z
" />
    <glyph glyph-name="Adieresis" unicode="&#xc4;" horiz-adv-x="1536" 
d="M1135 1577h-281v305h281v-305zM682 1577h-281v305h281v-305zM1524 0h-461l-70 233h-485l-70 -233h-426l494 1462h534zM893 571l-139 473h-6l-140 -473h285z" />
    <glyph glyph-name="Aring" unicode="&#xc5;" horiz-adv-x="1536" 
d="M1010 1788q0 -97 -71.5 -163t-168.5 -66q-102 0 -170 57.5t-68 157.5q0 98 69.5 162.5t168.5 64.5q102 0 171 -56.5t69 -156.5zM1524 0h-461l-70 233h-485l-70 -233h-426l494 1462h534zM874 1780q0 46 -29 74t-75 28q-44 0 -73 -29t-29 -73q0 -41 30.5 -71t71.5 -30
q42 0 73 29.5t31 71.5zM893 571l-139 473h-6l-140 -473h285z" />
    <glyph glyph-name="AE" unicode="&#xc6;" horiz-adv-x="2191" 
d="M2097 0h-1136v236h-394l-102 -236h-461l680 1460h1413v-354h-678v-201h537v-352h-537v-197h678v-356zM961 571v568l-248 -568h248z" />
    <glyph glyph-name="Ccedilla" unicode="&#xc7;" horiz-adv-x="1394" 
d="M1337 453q0 -92 -32 -169t-85 -130t-125 -91.5t-149.5 -59t-161.5 -26.5l-14 -55q242 5 242 -145q0 -60 -48 -102t-112.5 -59t-136.5 -17q-104 0 -238 32v129q137 -28 221 -28q78 0 78 41q0 15 -12.5 23.5t-27.5 10.5t-33 3h-7l-110 6l45 164q-92 7 -172.5 29.5
t-153.5 66t-125.5 104t-83 149t-30.5 195.5v424q0 108 35.5 198t96.5 152t143.5 104.5t175 62.5t192.5 20q90 0 176.5 -16t169 -53.5t144.5 -92t100 -137.5t38 -185v-90h-430v47q0 81 -55.5 125.5t-130.5 44.5q-90 0 -141.5 -48t-51.5 -138v-416q0 -93 49.5 -143.5
t143.5 -50.5q75 0 130.5 44.5t55.5 125.5v47h430v-96z" />
    <glyph glyph-name="Egrave" unicode="&#xc8;" horiz-adv-x="1333" 
d="M788 1565h-200l-281 348h316zM1239 0h-1137v1460h1137v-354h-678v-201h537v-352h-537v-197h678v-356z" />
    <glyph glyph-name="Eacute" unicode="&#xc9;" horiz-adv-x="1333" 
d="M1026 1913l-281 -348h-200l166 348h315zM1239 0h-1137v1460h1137v-354h-678v-201h537v-352h-537v-197h678v-356z" />
    <glyph glyph-name="Ecircumflex" unicode="&#xca;" horiz-adv-x="1333" 
d="M1024 1556h-240l-94 193l-98 -193h-238l219 365h230zM1239 0h-1137v1460h1137v-354h-678v-201h537v-352h-537v-197h678v-356z" />
    <glyph glyph-name="Edieresis" unicode="&#xcb;" horiz-adv-x="1333" 
d="M1081 1577h-280v305h280v-305zM629 1577h-281v305h281v-305zM1239 0h-1137v1460h1137v-354h-678v-201h537v-352h-537v-197h678v-356z" />
    <glyph glyph-name="Igrave" unicode="&#xcc;" horiz-adv-x="663" 
d="M434 1565h-201l-280 348h315zM561 0h-459v1460h459v-526v-395v-539z" />
    <glyph glyph-name="Iacute" unicode="&#xcd;" horiz-adv-x="663" 
d="M707 1913l-281 -348h-201l166 348h316zM561 0h-459v1460h459v-526v-395v-539z" />
    <glyph glyph-name="Icircumflex" unicode="&#xce;" horiz-adv-x="663" 
d="M668 1556h-240l-94 193l-98 -193h-240l219 365h229zM561 0h-459v1460h459v-526v-395v-539z" />
    <glyph glyph-name="Idieresis" unicode="&#xcf;" horiz-adv-x="663" 
d="M698 1577h-280v305h280v-305zM246 1577h-281v305h281v-305zM561 0h-459v1460h459v-526v-395v-539z" />
    <glyph glyph-name="Eth" unicode="&#xd0;" horiz-adv-x="1472" 
d="M1407 530q0 -138 -49 -242.5t-135.5 -166t-193.5 -91.5t-234 -30h-654v639h-118v225h118v596h650q102 0 192 -17.5t168.5 -56t135 -95.5t88.5 -140.5t32 -187.5v-433zM944 541v381q0 82 -52.5 131t-141.5 49h-150v-238h203v-225h-203v-283h160q89 0 136.5 55t47.5 130z
" />
    <glyph glyph-name="Ntilde" unicode="&#xd1;" horiz-adv-x="1544" 
d="M1190 1837q-37 -274 -240 -274q-60 0 -174 30.5t-174 30.5q-45 0 -64.5 -18.5t-37.5 -71.5l-146 31q20 123 80 200.5t172 77.5q60 0 172 -31.5t172 -31.5q38 0 60 22t41 68zM1442 0h-414l-508 717h-4v-717h-414v1460h445l477 -655h4v655h414v-1460z" />
    <glyph glyph-name="Ograve" unicode="&#xd2;" horiz-adv-x="1437" 
d="M838 1565h-201l-281 348h316zM1372 543q0 -121 -37 -219t-99 -162t-147.5 -107t-177 -61.5t-192.5 -18.5q-105 0 -197 17t-177.5 58.5t-146 105t-96.5 162t-36 223.5v374q0 115 35 210.5t95.5 161t143 111t176.5 66.5t197 21q104 0 197 -18t179 -60t147.5 -106t98.5 -163
t37 -223v-372zM909 532v398q0 94 -55.5 145t-136.5 51q-189 0 -189 -196v-389q0 -100 49 -153.5t144 -53.5q88 0 138 53t50 145z" />
    <glyph glyph-name="Oacute" unicode="&#xd3;" horiz-adv-x="1437" 
d="M1114 1913l-280 -348h-201l166 348h315zM1372 543q0 -121 -37 -219t-99 -162t-147.5 -107t-177 -61.5t-192.5 -18.5q-105 0 -197 17t-177.5 58.5t-146 105t-96.5 162t-36 223.5v374q0 115 35 210.5t95.5 161t143 111t176.5 66.5t197 21q104 0 197 -18t179 -60t147.5 -106
t98.5 -163t37 -223v-372zM909 532v398q0 94 -55.5 145t-136.5 51q-189 0 -189 -196v-389q0 -100 49 -153.5t144 -53.5q88 0 138 53t50 145z" />
    <glyph glyph-name="Ocircumflex" unicode="&#xd4;" horiz-adv-x="1437" 
d="M1055 1556h-240l-94 193l-98 -193h-240l219 365h229zM1372 543q0 -121 -37 -219t-99 -162t-147.5 -107t-177 -61.5t-192.5 -18.5q-105 0 -197 17t-177.5 58.5t-146 105t-96.5 162t-36 223.5v374q0 115 35 210.5t95.5 161t143 111t176.5 66.5t197 21q104 0 197 -18
t179 -60t147.5 -106t98.5 -163t37 -223v-372zM909 532v398q0 94 -55.5 145t-136.5 51q-189 0 -189 -196v-389q0 -100 49 -153.5t144 -53.5q88 0 138 53t50 145z" />
    <glyph glyph-name="Otilde" unicode="&#xd5;" horiz-adv-x="1437" 
d="M1137 1837q-37 -274 -240 -274q-59 0 -174 30.5t-174 30.5q-45 0 -65 -19t-38 -71l-145 31q20 123 80 200.5t172 77.5q59 0 172 -31.5t172 -31.5q38 0 59 21.5t41 68.5zM1372 543q0 -121 -37 -219t-99 -162t-147.5 -107t-177 -61.5t-192.5 -18.5q-105 0 -197 17
t-177.5 58.5t-146 105t-96.5 162t-36 223.5v374q0 115 35 210.5t95.5 161t143 111t176.5 66.5t197 21q104 0 197 -18t179 -60t147.5 -106t98.5 -163t37 -223v-372zM909 532v398q0 94 -55.5 145t-136.5 51q-189 0 -189 -196v-389q0 -100 49 -153.5t144 -53.5q88 0 138 53
t50 145z" />
    <glyph glyph-name="Odieresis" unicode="&#xd6;" horiz-adv-x="1437" 
d="M1085 1577h-280v305h280v-305zM633 1577h-281v305h281v-305zM1372 543q0 -121 -37 -219t-99 -162t-147.5 -107t-177 -61.5t-192.5 -18.5q-105 0 -197 17t-177.5 58.5t-146 105t-96.5 162t-36 223.5v374q0 115 35 210.5t95.5 161t143 111t176.5 66.5t197 21q104 0 197 -18
t179 -60t147.5 -106t98.5 -163t37 -223v-372zM909 532v398q0 94 -55.5 145t-136.5 51q-189 0 -189 -196v-389q0 -100 49 -153.5t144 -53.5q88 0 138 53t50 145z" />
    <glyph glyph-name="multiply" unicode="&#xd7;" horiz-adv-x="1171" 
d="M1059 317l-150 -153l-323 332l-324 -332l-149 153l321 332l-321 336l149 154l324 -334l323 332l150 -152l-322 -334z" />
    <glyph glyph-name="Oslash" unicode="&#xd8;" horiz-adv-x="1437" 
d="M1372 543q0 -121 -37 -219t-99 -162t-147.5 -107t-177 -61.5t-192.5 -18.5q-208 0 -361 68l-104 -149l-145 81l110 160q-153 143 -153 406v374q0 115 35 210.5t95.5 161t143 111t176.5 66.5t197 21q222 0 381 -80l98 143l137 -86l-104 -151q147 -144 147 -396v-372z
M860 1067q-53 59 -143 59q-189 0 -189 -196v-344zM909 532v318l-323 -471q48 -45 135 -45q88 0 138 53t50 145z" />
    <glyph glyph-name="Ugrave" unicode="&#xd9;" horiz-adv-x="1484" 
d="M866 1565h-200l-281 348h315zM1386 541q0 -139 -53.5 -249.5t-145 -179t-208 -104t-248.5 -35.5q-306 0 -469.5 138t-163.5 419v930h459v-913q0 -106 55 -161.5t144 -55.5q83 0 134.5 58t51.5 159v913h444v-919z" />
    <glyph glyph-name="Uacute" unicode="&#xda;" horiz-adv-x="1484" 
d="M1147 1913l-281 -348h-200l165 348h316zM1386 541q0 -139 -53.5 -249.5t-145 -179t-208 -104t-248.5 -35.5q-306 0 -469.5 138t-163.5 419v930h459v-913q0 -106 55 -161.5t144 -55.5q83 0 134.5 58t51.5 159v913h444v-919z" />
    <glyph glyph-name="Ucircumflex" unicode="&#xdb;" horiz-adv-x="1484" 
d="M1090 1556h-240l-94 193l-99 -193h-237l219 365h229zM1386 541q0 -139 -53.5 -249.5t-145 -179t-208 -104t-248.5 -35.5q-306 0 -469.5 138t-163.5 419v930h459v-913q0 -106 55 -161.5t144 -55.5q83 0 134.5 58t51.5 159v913h444v-919z" />
    <glyph glyph-name="Udieresis" unicode="&#xdc;" horiz-adv-x="1484" 
d="M1110 1577h-283v305h283v-305zM655 1577h-280v305h280v-305zM1386 541q0 -139 -53.5 -249.5t-145 -179t-208 -104t-248.5 -35.5q-306 0 -469.5 138t-163.5 419v930h459v-913q0 -106 55 -161.5t144 -55.5q83 0 134.5 58t51.5 159v913h444v-919z" />
    <glyph glyph-name="Yacute" unicode="&#xdd;" horiz-adv-x="1396" 
d="M1401 1460l-473 -893v-567h-461v569l-471 891h469l254 -524l258 524h424zM1114 1913l-280 -348h-201l166 348h315z" />
    <glyph glyph-name="Thorn" unicode="&#xde;" horiz-adv-x="1419" 
d="M1354 762q0 -90 -29.5 -171.5t-90 -150t-165 -109t-240.5 -40.5h-268v-291h-459v1460h459v-260h268q132 0 235 -36.5t165 -99t93.5 -139.5t31.5 -163zM907 741q0 60 -42 103t-120 43h-184v-291h182q76 0 120 43t44 102z" />
    <glyph glyph-name="germandbls" unicode="&#xdf;" horiz-adv-x="1390" 
d="M1335 408q0 -131 -64.5 -231.5t-166 -151t-219.5 -50.5q-169 0 -267 33v320q94 -15 115 -15q72 0 110 33.5t38 91.5q0 63 -58.5 100t-173.5 37v299h47q53 24 85 68t32 102q0 142 -137 142q-73 0 -115.5 -47t-42.5 -123v-1016h-424v965q0 73 17 142.5t60 139.5t108 121.5
t170 84t237 32.5q114 0 213 -24.5t176.5 -72.5t122.5 -126.5t45 -178.5q0 -98 -53 -174.5t-152 -103.5v-10q135 -48 216 -152t81 -235z" />
    <glyph glyph-name="agrave" unicode="&#xe0;" horiz-adv-x="1236" 
d="M745 1212h-200l-281 349h316zM1167 0h-395l-12 143h-12q-31 -50 -79 -86t-99.5 -52.5t-92.5 -23t-78 -6.5q-154 0 -251 81t-97 231q0 87 38.5 155.5t98 108.5t139 66t153 35.5t149.5 9.5h94v71q0 50 -34.5 81.5t-100.5 31.5q-71 0 -100 -35t-29 -80v-24h-377v49
q0 115 75 201t196.5 128.5t271.5 42.5q102 0 193 -23.5t166.5 -71t120 -128t44.5 -184.5v-471q0 -88 18 -250zM723 395v70h-76q-77 0 -120.5 -23t-43.5 -82q0 -98 111 -98q43 0 86 35.5t43 97.5z" />
    <glyph glyph-name="aacute" unicode="&#xe1;" horiz-adv-x="1236" 
d="M983 1561l-281 -349h-200l166 349h315zM1167 0h-395l-12 143h-12q-31 -50 -79 -86t-99.5 -52.5t-92.5 -23t-78 -6.5q-154 0 -251 81t-97 231q0 87 38.5 155.5t98 108.5t139 66t153 35.5t149.5 9.5h94v71q0 50 -34.5 81.5t-100.5 31.5q-71 0 -100 -35t-29 -80v-24h-377v49
q0 115 75 201t196.5 128.5t271.5 42.5q102 0 193 -23.5t166.5 -71t120 -128t44.5 -184.5v-471q0 -88 18 -250zM723 395v70h-76q-77 0 -120.5 -23t-43.5 -82q0 -98 111 -98q43 0 86 35.5t43 97.5z" />
    <glyph glyph-name="acircumflex" unicode="&#xe2;" horiz-adv-x="1236" 
d="M961 1212h-240l-94 193l-99 -193h-237l219 365h229zM1167 0h-395l-12 143h-12q-31 -50 -79 -86t-99.5 -52.5t-92.5 -23t-78 -6.5q-154 0 -251 81t-97 231q0 87 38.5 155.5t98 108.5t139 66t153 35.5t149.5 9.5h94v71q0 50 -34.5 81.5t-100.5 31.5q-71 0 -100 -35t-29 -80
v-24h-377v49q0 115 75 201t196.5 128.5t271.5 42.5q102 0 193 -23.5t166.5 -71t120 -128t44.5 -184.5v-471q0 -88 18 -250zM723 395v70h-76q-77 0 -120.5 -23t-43.5 -82q0 -98 111 -98q43 0 86 35.5t43 97.5z" />
    <glyph glyph-name="atilde" unicode="&#xe3;" horiz-adv-x="1236" 
d="M1049 1495q-37 -274 -240 -274q-59 0 -174 30.5t-174 30.5q-45 0 -65 -19t-38 -71l-145 31q20 123 80 200.5t172 77.5q59 0 172 -31.5t172 -31.5q38 0 59 21.5t41 68.5zM1167 0h-395l-12 143h-12q-31 -50 -79 -86t-99.5 -52.5t-92.5 -23t-78 -6.5q-154 0 -251 81t-97 231
q0 87 38.5 155.5t98 108.5t139 66t153 35.5t149.5 9.5h94v71q0 50 -34.5 81.5t-100.5 31.5q-71 0 -100 -35t-29 -80v-24h-377v49q0 115 75 201t196.5 128.5t271.5 42.5q102 0 193 -23.5t166.5 -71t120 -128t44.5 -184.5v-471q0 -88 18 -250zM723 395v70h-76
q-77 0 -120.5 -23t-43.5 -82q0 -98 111 -98q43 0 86 35.5t43 97.5z" />
    <glyph glyph-name="adieresis" unicode="&#xe4;" horiz-adv-x="1236" 
d="M1001 1219h-280v305h280v-305zM549 1219h-281v305h281v-305zM1167 0h-395l-12 143h-12q-31 -50 -79 -86t-99.5 -52.5t-92.5 -23t-78 -6.5q-154 0 -251 81t-97 231q0 87 38.5 155.5t98 108.5t139 66t153 35.5t149.5 9.5h94v71q0 50 -34.5 81.5t-100.5 31.5q-71 0 -100 -35
t-29 -80v-24h-377v49q0 115 75 201t196.5 128.5t271.5 42.5q102 0 193 -23.5t166.5 -71t120 -128t44.5 -184.5v-471q0 -88 18 -250zM723 395v70h-76q-77 0 -120.5 -23t-43.5 -82q0 -98 111 -98q43 0 86 35.5t43 97.5z" />
    <glyph glyph-name="aring" unicode="&#xe5;" horiz-adv-x="1236" 
d="M858 1434q0 -97 -71.5 -163.5t-168.5 -66.5q-102 0 -169.5 57.5t-67.5 157.5q0 98 69.5 163t167.5 65q102 0 171 -56.5t69 -156.5zM1167 0h-395l-12 143h-12q-31 -50 -79 -86t-99.5 -52.5t-92.5 -23t-78 -6.5q-154 0 -251 81t-97 231q0 87 38.5 155.5t98 108.5t139 66
t153 35.5t149.5 9.5h94v71q0 50 -34.5 81.5t-100.5 31.5q-71 0 -100 -35t-29 -80v-24h-377v49q0 115 75 201t196.5 128.5t271.5 42.5q102 0 193 -23.5t166.5 -71t120 -128t44.5 -184.5v-471q0 -88 18 -250zM723 1425q0 46 -29.5 74.5t-75.5 28.5q-44 0 -73 -29.5t-29 -73.5
q0 -41 30.5 -70.5t71.5 -29.5q42 0 73.5 29t31.5 71zM723 395v70h-76q-77 0 -120.5 -23t-43.5 -82q0 -98 111 -98q43 0 86 35.5t43 97.5z" />
    <glyph glyph-name="ae" unicode="&#xe6;" horiz-adv-x="1863" 
d="M1790 455h-641v-31q0 -52 36.5 -86t81.5 -45.5t95 -11.5q118 0 332 61l67 -270q-229 -99 -473 -99q-155 0 -283.5 48t-201.5 149q-30 -47 -67 -82t-77 -55.5t-74.5 -33t-75 -17.5t-61 -6t-49.5 -1q-154 0 -251 81t-97 231q0 87 38.5 155.5t98 108.5t139 66t153 35.5
t149.5 9.5h94v71q0 50 -34.5 81.5t-100.5 31.5q-71 0 -100 -35t-29 -80v-24h-377v49q0 115 75 201t196.5 128.5t271.5 42.5q198 0 333 -79q139 81 330 81q100 0 190 -30t160 -86t111 -145.5t41 -200.5v-213zM1399 674v43q0 60 -34.5 93.5t-92.5 33.5q-55 0 -89 -35t-34 -92
v-43h250zM723 395v70h-76q-77 0 -120.5 -23t-43.5 -82q0 -98 111 -98q43 0 86 35.5t43 97.5z" />
    <glyph glyph-name="ccedilla" unicode="&#xe7;" horiz-adv-x="1196" 
d="M1147 348q0 -86 -39 -156t-106 -115t-152.5 -71t-183.5 -31l-15 -53q242 5 242 -145q0 -60 -48 -102t-112.5 -59t-136.5 -17q-104 0 -238 32v129q136 -28 222 -28q77 0 77 41q0 15 -12 23.5t-27 10.5t-33 3h-7l-111 6l45 164q-90 11 -167 40.5t-142.5 81t-103.5 135
t-38 189.5v225q0 98 33 179.5t87.5 136t126.5 92t149 54.5t157 17q105 0 200 -26t169.5 -74t119 -123.5t44.5 -167.5v-69h-412v43q0 59 -30.5 88.5t-83.5 29.5q-63 0 -96 -34.5t-33 -100.5v-284q0 -67 33.5 -103.5t95.5 -36.5q53 0 83.5 29.5t30.5 89.5v43h412v-86z" />
    <glyph glyph-name="egrave" unicode="&#xe8;" horiz-adv-x="1204" 
d="M745 1212h-200l-281 349h316zM1130 455h-641v-31q0 -52 36.5 -86t81.5 -45.5t95 -11.5q118 0 332 61l68 -270q-229 -99 -473 -99q-88 0 -168 14.5t-154 49t-128 86t-86 130.5t-32 177v195q0 104 33 190t88 143.5t129 97t153.5 57t164.5 17.5q100 0 189.5 -30t159.5 -86
t111 -145.5t41 -200.5v-213zM739 674v43q0 60 -34.5 93.5t-92.5 33.5q-55 0 -89 -35t-34 -92v-43h250z" />
    <glyph glyph-name="eacute" unicode="&#xe9;" horiz-adv-x="1204" 
d="M983 1561l-281 -349h-200l166 349h315zM1130 455h-641v-31q0 -52 36.5 -86t81.5 -45.5t95 -11.5q118 0 332 61l68 -270q-229 -99 -473 -99q-88 0 -168 14.5t-154 49t-128 86t-86 130.5t-32 177v195q0 104 33 190t88 143.5t129 97t153.5 57t164.5 17.5q100 0 189.5 -30
t159.5 -86t111 -145.5t41 -200.5v-213zM739 674v43q0 60 -34.5 93.5t-92.5 33.5q-55 0 -89 -35t-34 -92v-43h250z" />
    <glyph glyph-name="ecircumflex" unicode="&#xea;" horiz-adv-x="1204" 
d="M961 1212h-240l-94 193l-99 -193h-237l219 365h229zM1130 455h-641v-31q0 -52 36.5 -86t81.5 -45.5t95 -11.5q118 0 332 61l68 -270q-229 -99 -473 -99q-88 0 -168 14.5t-154 49t-128 86t-86 130.5t-32 177v195q0 104 33 190t88 143.5t129 97t153.5 57t164.5 17.5
q100 0 189.5 -30t159.5 -86t111 -145.5t41 -200.5v-213zM739 674v43q0 60 -34.5 93.5t-92.5 33.5q-55 0 -89 -35t-34 -92v-43h250z" />
    <glyph glyph-name="edieresis" unicode="&#xeb;" horiz-adv-x="1204" 
d="M1020 1219h-281v305h281v-305zM567 1219h-280v305h280v-305zM1130 455h-641v-31q0 -52 36.5 -86t81.5 -45.5t95 -11.5q118 0 332 61l68 -270q-229 -99 -473 -99q-88 0 -168 14.5t-154 49t-128 86t-86 130.5t-32 177v195q0 104 33 190t88 143.5t129 97t153.5 57
t164.5 17.5q100 0 189.5 -30t159.5 -86t111 -145.5t41 -200.5v-213zM739 674v43q0 60 -34.5 93.5t-92.5 33.5q-55 0 -89 -35t-34 -92v-43h250z" />
    <glyph glyph-name="igrave" unicode="&#xec;" horiz-adv-x="614" 
d="M406 1212h-203l-281 349h316zM520 0h-426v1104h426v-1104z" />
    <glyph glyph-name="iacute" unicode="&#xed;" horiz-adv-x="614" 
d="M664 1561l-281 -349h-201l166 349h316zM520 0h-426v1104h426v-1104z" />
    <glyph glyph-name="icircumflex" unicode="&#xee;" horiz-adv-x="614" 
d="M643 1212h-240l-94 193l-98 -193h-240l219 365h230zM520 0h-426v1104h426v-1104z" />
    <glyph glyph-name="idieresis" unicode="&#xef;" horiz-adv-x="614" 
d="M674 1219h-281v305h281v-305zM221 1219h-280v305h280v-305zM520 0h-426v1104h426v-1104z" />
    <glyph glyph-name="eth" unicode="&#xf0;" horiz-adv-x="1228" 
d="M1167 430q0 -98 -33.5 -177.5t-88 -130t-127.5 -84.5t-148.5 -48.5t-155.5 -14.5q-83 0 -158 12.5t-148.5 45t-127 82t-86.5 130t-33 183.5v152q0 99 31.5 180.5t87.5 137t125.5 91.5t153.5 53l-60 76l-186 -51l-107 184l156 43l-127 166l443 70l92 -123l217 59l106 -184
l-188 -53l258 -342q104 -136 104 -299v-158zM737 412v200q0 61 -34 101.5t-89 40.5q-61 0 -91.5 -41t-30.5 -107v-198q0 -132 124 -132q61 0 91 37.5t30 98.5z" />
    <glyph glyph-name="ntilde" unicode="&#xf1;" horiz-adv-x="1294" 
d="M1085 1495q-37 -274 -239 -274q-60 0 -174 30.5t-174 30.5q-45 0 -65 -19t-38 -71l-145 31q20 123 80 200.5t172 77.5q60 0 172 -31.5t172 -31.5q38 0 59 21.5t41 68.5zM1212 0h-426v649q0 162 -135 162q-54 0 -92.5 -48.5t-38.5 -135.5v-627h-426v1106h418v-143h4
q131 167 356 167q47 0 93 -10t91.5 -34t79.5 -59t55 -89t21 -121v-817z" />
    <glyph glyph-name="ograve" unicode="&#xf2;" horiz-adv-x="1228" 
d="M743 1212h-200l-281 349h316zM1167 430q0 -98 -33.5 -177.5t-88 -130t-127.5 -84.5t-148.5 -48.5t-155.5 -14.5q-83 0 -158 12.5t-148.5 45t-127 82t-86.5 130t-33 183.5v225q0 98 31 179t83.5 135.5t123.5 91.5t148.5 54t160.5 17t159.5 -14t151 -48.5t128.5 -86.5
t87 -134t33 -185v-232zM737 412v274q0 61 -34 101t-89 40q-61 0 -91.5 -40.5t-30.5 -106.5v-272q0 -132 124 -132q61 0 91 37.5t30 98.5z" />
    <glyph glyph-name="oacute" unicode="&#xf3;" horiz-adv-x="1228" 
d="M983 1561l-281 -349h-200l166 349h315zM1167 430q0 -98 -33.5 -177.5t-88 -130t-127.5 -84.5t-148.5 -48.5t-155.5 -14.5q-83 0 -158 12.5t-148.5 45t-127 82t-86.5 130t-33 183.5v225q0 98 31 179t83.5 135.5t123.5 91.5t148.5 54t160.5 17t159.5 -14t151 -48.5
t128.5 -86.5t87 -134t33 -185v-232zM737 412v274q0 61 -34 101t-89 40q-61 0 -91.5 -40.5t-30.5 -106.5v-272q0 -132 124 -132q61 0 91 37.5t30 98.5z" />
    <glyph glyph-name="ocircumflex" unicode="&#xf4;" horiz-adv-x="1228" 
d="M950 1212h-239l-95 193l-98 -193h-239l219 365h229zM1167 430q0 -98 -33.5 -177.5t-88 -130t-127.5 -84.5t-148.5 -48.5t-155.5 -14.5q-83 0 -158 12.5t-148.5 45t-127 82t-86.5 130t-33 183.5v225q0 98 31 179t83.5 135.5t123.5 91.5t148.5 54t160.5 17t159.5 -14
t151 -48.5t128.5 -86.5t87 -134t33 -185v-232zM737 412v274q0 61 -34 101t-89 40q-61 0 -91.5 -40.5t-30.5 -106.5v-272q0 -132 124 -132q61 0 91 37.5t30 98.5z" />
    <glyph glyph-name="otilde" unicode="&#xf5;" horiz-adv-x="1228" 
d="M1032 1495q-37 -274 -239 -274q-59 0 -174 30.5t-175 30.5q-45 0 -64.5 -18.5t-37.5 -71.5l-145 31q20 123 80 200.5t172 77.5q60 0 172.5 -31.5t171.5 -31.5q38 0 59 21.5t41 68.5zM1167 430q0 -98 -33.5 -177.5t-88 -130t-127.5 -84.5t-148.5 -48.5t-155.5 -14.5
q-83 0 -158 12.5t-148.5 45t-127 82t-86.5 130t-33 183.5v225q0 98 31 179t83.5 135.5t123.5 91.5t148.5 54t160.5 17t159.5 -14t151 -48.5t128.5 -86.5t87 -134t33 -185v-232zM737 412v274q0 61 -34 101t-89 40q-61 0 -91.5 -40.5t-30.5 -106.5v-272q0 -132 124 -132
q61 0 91 37.5t30 98.5z" />
    <glyph glyph-name="odieresis" unicode="&#xf6;" horiz-adv-x="1228" 
d="M981 1219h-281v305h281v-305zM528 1219h-280v305h280v-305zM1167 430q0 -98 -33.5 -177.5t-88 -130t-127.5 -84.5t-148.5 -48.5t-155.5 -14.5q-83 0 -158 12.5t-148.5 45t-127 82t-86.5 130t-33 183.5v225q0 98 31 179t83.5 135.5t123.5 91.5t148.5 54t160.5 17
t159.5 -14t151 -48.5t128.5 -86.5t87 -134t33 -185v-232zM737 412v274q0 61 -34 101t-89 40q-61 0 -91.5 -40.5t-30.5 -106.5v-272q0 -132 124 -132q61 0 91 37.5t30 98.5z" />
    <glyph glyph-name="divide" unicode="&#xf7;" horiz-adv-x="1232" 
d="M774 874h-315v293h315v-293zM1120 541h-1007v213h1007v-213zM774 127h-315v293h315v-293z" />
    <glyph glyph-name="oslash" unicode="&#xf8;" horiz-adv-x="1228" 
d="M1167 430q0 -98 -33.5 -177.5t-88 -130t-127.5 -84.5t-148.5 -48.5t-155.5 -14.5q-163 0 -286 48l-86 -117l-131 71l88 121q-138 118 -138 330v225q0 98 31 179t83.5 135.5t123.5 91.5t148.5 54t160.5 17q179 0 305 -59l80 109l125 -76l-82 -113q131 -121 131 -329v-232z
M705 786q-38 41 -91 41q-61 0 -91.5 -40.5t-30.5 -106.5v-184zM737 412v172l-205 -283q28 -25 84 -25q61 0 91 37.5t30 98.5z" />
    <glyph glyph-name="ugrave" unicode="&#xf9;" horiz-adv-x="1318" 
d="M793 1212h-201l-281 349h316zM1221 0h-418v166h-4q-132 -191 -357 -191q-47 0 -93 10t-91.5 33.5t-79.5 58.5t-55 89t-21 121v817h426v-649q0 -162 136 -162q54 0 92.5 48.5t38.5 135.5v627h426v-1104z" />
    <glyph glyph-name="uacute" unicode="&#xfa;" horiz-adv-x="1318" 
d="M1049 1561l-281 -349h-201l166 349h316zM1221 0h-418v166h-4q-132 -191 -357 -191q-47 0 -93 10t-91.5 33.5t-79.5 58.5t-55 89t-21 121v817h426v-649q0 -162 136 -162q54 0 92.5 48.5t38.5 135.5v627h426v-1104z" />
    <glyph glyph-name="ucircumflex" unicode="&#xfb;" horiz-adv-x="1318" 
d="M1001 1212h-239l-94 193l-99 -193h-237l219 365h229zM1221 0h-418v166h-4q-132 -191 -357 -191q-47 0 -93 10t-91.5 33.5t-79.5 58.5t-55 89t-21 121v817h426v-649q0 -162 136 -162q54 0 92.5 48.5t38.5 135.5v627h426v-1104z" />
    <glyph glyph-name="udieresis" unicode="&#xfc;" horiz-adv-x="1318" 
d="M1040 1219h-280v305h280v-305zM588 1219h-281v305h281v-305zM1221 0h-418v166h-4q-132 -191 -357 -191q-47 0 -93 10t-91.5 33.5t-79.5 58.5t-55 89t-21 121v817h426v-649q0 -162 136 -162q54 0 92.5 48.5t38.5 135.5v627h426v-1104z" />
    <glyph glyph-name="yacute" unicode="&#xfd;" horiz-adv-x="1228" 
d="M1049 1561l-281 -349h-201l166 349h316zM1231 1106l-402 -1157q-33 -94 -84.5 -161.5t-115.5 -105t-132 -54.5t-145 -17q-88 0 -200 22v310q67 -17 145 -17q41 0 73 16t42 44l8 22l-402 1098h455l182 -639h9l186 639h381z" />
    <glyph glyph-name="thorn" unicode="&#xfe;" horiz-adv-x="1273" 
d="M1212 346q0 -159 -123.5 -266t-304.5 -107q-70 0 -143.5 31.5t-116.5 83.5h-4v-465h-426v1837h426v-493h4q59 77 145 120t173 43q185 0 277.5 -103.5t92.5 -283.5v-397zM786 401v273q0 70 -36.5 108.5t-87.5 38.5q-63 0 -102.5 -35t-39.5 -133v-252q0 -40 13.5 -69.5
t35.5 -44t43 -21t43 -6.5q54 0 92.5 36t38.5 105z" />
    <glyph glyph-name="ydieresis" unicode="&#xff;" horiz-adv-x="1228" 
d="M1038 1219h-280v305h280v-305zM586 1219h-281v305h281v-305zM1231 1106l-402 -1157q-33 -94 -84.5 -161.5t-115.5 -105t-132 -54.5t-145 -17q-88 0 -200 22v310q67 -17 145 -17q41 0 73 16t42 44l8 22l-402 1098h455l182 -639h9l186 639h381z" />
    <glyph glyph-name="dotlessi" unicode="&#x131;" horiz-adv-x="614" 
d="M520 0h-426v1104h426v-1104z" />
    <glyph glyph-name="Lslash" unicode="&#x141;" horiz-adv-x="1318" 
d="M1278 0h-1137v612l-118 -32v225l118 33v622h459v-495l203 55v-225l-203 -56v-383h678v-356z" />
    <glyph glyph-name="lslash" unicode="&#x142;" horiz-adv-x="757" 
d="M709 14q-119 -39 -234 -39q-160 0 -257 76t-97 219v336l-98 -26v225l98 26v629h428v-512l143 39v-225l-143 -39v-320q0 -39 15 -57t65 -18q18 0 80 8v-322z" />
    <glyph glyph-name="OE" unicode="&#x152;" horiz-adv-x="2140" 
d="M2046 0h-1137v39q-45 -29 -112 -46.5t-129 -17.5q-105 0 -192 17.5t-164.5 58.5t-131 104.5t-84 161.5t-30.5 224v374q0 116 29.5 210.5t82.5 161t128 111.5t164 66t192 21q64 0 133 -19t114 -51v45h1137v-354h-678v-201h537v-352h-537v-197h678v-356zM909 532v398
q0 94 -55.5 145t-136.5 51q-189 0 -189 -196v-389q0 -100 49 -153.5t144 -53.5q88 0 138 53t50 145z" />
    <glyph glyph-name="oe" unicode="&#x153;" horiz-adv-x="1882" 
d="M1808 455h-641v-31q0 -52 36.5 -86t81.5 -45.5t95 -11.5q118 0 332 61l68 -270q-229 -99 -473 -99q-209 0 -357 80q-142 -78 -336 -78q-83 0 -158 12.5t-148.5 45t-127 82t-86.5 130t-33 183.5v225q0 98 31 179t83.5 135.5t123.5 91.5t148.5 54t160.5 17q215 0 357 -88
q144 88 342 88q100 0 189.5 -30t159.5 -86t111 -145.5t41 -200.5v-213zM1417 674v43q0 60 -34.5 93.5t-92.5 33.5q-55 0 -89 -35t-34 -92v-43h250zM737 412v274q0 61 -34 101t-89 40q-61 0 -91.5 -40.5t-30.5 -106.5v-272q0 -132 124 -132q61 0 91 37.5t30 98.5z" />
    <glyph glyph-name="Scaron" unicode="&#x160;" horiz-adv-x="1316" 
d="M983 1933l-219 -364h-229l-222 364h240l94 -192l98 192h238zM1274 479q0 -89 -26 -164.5t-71.5 -129.5t-104.5 -95.5t-129.5 -66t-141.5 -36.5t-144 -12q-205 0 -355 33.5t-290 130.5l217 320q81 -62 185.5 -106t203.5 -44q31 0 57.5 3.5t53.5 12t43 26t16 42.5t-9 43
t-29 29.5t-38 18t-50 14.5q-2 1 -3 1q-1 -1 -14 3l-242 67q-156 43 -249 149t-93 261q0 101 42 192.5t117 160.5t188 110t247 41q193 0 314.5 -33t253.5 -111l-242 -301q-56 44 -145 72.5t-158 28.5q-164 0 -164 -88q0 -14 4 -25.5t14.5 -20t20 -15t29 -13t32.5 -10
t39.5 -10.5t42.5 -11l211 -59q180 -51 273.5 -156t93.5 -252z" />
    <glyph glyph-name="scaron" unicode="&#x161;" horiz-adv-x="1148" 
d="M903 1577l-219 -365h-229l-222 365h240l94 -193l99 193h237zM1100 369q0 -82 -32.5 -149.5t-85 -112t-122.5 -75t-142.5 -44t-146.5 -13.5q-171 0 -289.5 24.5t-244.5 102.5l176 271q70 -49 159.5 -84t168.5 -35q127 0 127 51q0 20 -14 34t-28 19.5t-36 10.5q-18 3 -33 6
l-209 59q-134 38 -202 111t-68 192q0 163 133.5 278t357.5 115q161 0 260 -25t222 -89l-205 -248q-56 38 -128.5 60t-127.5 22q-123 0 -123 -55q0 -32 33 -43q21 -7 60.5 -14t47.5 -9l176 -45q153 -40 234.5 -121t81.5 -194z" />
    <glyph glyph-name="Ydieresis" unicode="&#x178;" horiz-adv-x="1396" 
d="M1083 1577h-280v305h280v-305zM631 1577h-281v305h281v-305zM1401 1460l-473 -893v-567h-461v569l-471 891h469l254 -524l258 524h424z" />
    <glyph glyph-name="Zcaron" unicode="&#x17d;" horiz-adv-x="1345" 
d="M1014 1933l-219 -364h-230l-221 364h240l94 -192l98 192h238zM1268 1155l-596 -799h588v-356h-1186v264l639 842h-619v354h1174v-305z" />
    <glyph glyph-name="zcaron" unicode="&#x17e;" horiz-adv-x="1155" 
d="M932 1577l-219 -365h-230l-221 365h240l94 -193l98 193h238zM1073 0h-991v256l481 541h-469v309h977v-264l-469 -531h471v-311z" />
    <glyph glyph-name="florin" unicode="&#x192;" horiz-adv-x="876" 
d="M838 584h-203v-942h-424v942h-170v235h170v352q0 72 23 129t60 93t87.5 60t102 34t106.5 10t78 -0.5t72 -7t89 -19.5v-251q-62 8 -116 8q-34 0 -56 -19.5t-22 -52.5v-336h203v-235z" />
    <glyph glyph-name="circumflex" unicode="&#x2c6;" horiz-adv-x="792" 
d="M731 1212h-239l-95 193l-98 -193h-238l220 365h229z" />
    <glyph glyph-name="caron" unicode="&#x2c7;" horiz-adv-x="792" 
d="M731 1577l-219 -365h-229l-222 365h240l94 -193l99 193h237z" />
    <glyph glyph-name="breve" unicode="&#x2d8;" horiz-adv-x="935" 
d="M840 1507q-2 -94 -60.5 -168t-141.5 -110.5t-171 -36.5q-151 0 -259 91t-112 224h201q28 -66 68 -100.5t112 -34.5q61 0 104 36.5t52 98.5h207z" />
    <glyph glyph-name="dotaccent" unicode="&#x2d9;" horiz-adv-x="530" 
d="M406 1200h-281v305h281v-305z" />
    <glyph glyph-name="ring" unicode="&#x2da;" horiz-adv-x="675" 
d="M578 1434q0 -97 -72 -163.5t-170 -66.5q-101 0 -169.5 58t-68.5 157q0 98 70.5 163t167.5 65q103 0 172.5 -56.5t69.5 -156.5zM440 1425q0 46 -29 74.5t-75 28.5q-44 0 -72 -29t-28 -74q0 -41 29.5 -70.5t70.5 -29.5q43 0 73.5 29t30.5 71z" />
    <glyph glyph-name="ogonek" unicode="&#x2db;" horiz-adv-x="819" 
d="M643 0q-223 -78 -223 -199q0 -36 23 -53.5t57 -17.5q50 0 116 16v-131q-87 -18 -182 -18q-119 0 -194.5 38t-75.5 117q0 92 96.5 166t224.5 111z" />
    <glyph glyph-name="tilde" unicode="&#x2dc;" horiz-adv-x="1040" 
d="M938 1495q-37 -274 -240 -274q-60 0 -174 30.5t-174 30.5q-45 0 -64.5 -18.5t-37.5 -71.5l-146 31q20 123 80 200.5t172 77.5q59 0 171.5 -31.5t172.5 -31.5q38 0 60 22t41 68z" />
    <glyph glyph-name="hungarumlaut" unicode="&#x2dd;" horiz-adv-x="1136" 
d="M1034 1561l-280 -349h-201l166 349h315zM584 1561l-281 -349h-201l166 349h316z" />
    <glyph glyph-name="Delta" unicode="&#x394;" 
 />
    <glyph glyph-name="Omega" unicode="&#x3a9;" 
 />
    <glyph glyph-name="pi" unicode="&#x3c0;" 
 />
    <glyph glyph-name="endash" unicode="&#x2013;" horiz-adv-x="1298" 
d="M1247 498h-1196v225h1196v-225z" />
    <glyph glyph-name="emdash" unicode="&#x2014;" horiz-adv-x="2322" 
d="M2271 498h-2220v223h2220v-223z" />
    <glyph glyph-name="quoteleft" unicode="&#x2018;" horiz-adv-x="659" 
d="M541 801h-422v370l157 314h193l-74 -289h146v-395z" />
    <glyph glyph-name="quoteright" unicode="&#x2019;" horiz-adv-x="659" 
d="M541 1114l-158 -313h-193l74 289h-145v395h422v-371z" />
    <glyph glyph-name="quotesinglbase" unicode="&#x201a;" horiz-adv-x="659" 
d="M541 25l-158 -314h-193l74 289h-145v395h422v-370z" />
    <glyph glyph-name="quotedblleft" unicode="&#x201c;" horiz-adv-x="1185" 
d="M1067 801h-422v370l158 314h192l-73 -289h145v-395zM541 801h-422v370l157 314h193l-74 -289h146v-395z" />
    <glyph glyph-name="quotedblright" unicode="&#x201d;" horiz-adv-x="1185" 
d="M1067 1114l-158 -313h-192l74 289h-146v395h422v-371zM541 1114l-158 -313h-193l74 289h-145v395h422v-371z" />
    <glyph glyph-name="quotedblbase" unicode="&#x201e;" horiz-adv-x="1185" 
d="M1067 25l-158 -314h-192l74 289h-146v395h422v-370zM541 25l-158 -314h-193l74 289h-145v395h422v-370z" />
    <glyph glyph-name="dagger" unicode="&#x2020;" horiz-adv-x="1187" 
d="M1096 938h-375v-1249h-254v1249h-375v219h375v313h254v-313h375v-219z" />
    <glyph glyph-name="daggerdbl" unicode="&#x2021;" horiz-adv-x="1187" 
d="M1096 27h-375v-336h-254v336h-377v221h377v690h-377v221h377v314h254v-314h375v-221h-375v-690h375v-221z" />
    <glyph glyph-name="bullet" unicode="&#x2022;" horiz-adv-x="913" 
d="M674 750q0 -90 -63 -154t-152 -64q-91 0 -155 64t-64 154q0 91 64 154t155 63q89 0 152 -63t63 -154z" />
    <glyph glyph-name="ellipsis" unicode="&#x2026;" horiz-adv-x="1740" 
d="M1622 0h-422v397h422v-397zM1081 0h-422v397h422v-397zM541 0h-422v397h422v-397z" />
    <glyph glyph-name="perthousand" unicode="&#x2030;" horiz-adv-x="2693" 
d="M2615 248q0 -70 -31 -124t-82 -84.5t-108 -45t-117 -14.5q-62 0 -119.5 13.5t-109.5 43t-83.5 84t-31.5 127.5v319q0 72 30 126.5t80.5 85t108.5 45t121 14.5t120.5 -15t109 -45.5t82 -86.5t30.5 -130v-313zM1829 248q0 -70 -31 -124t-82 -84.5t-108 -45t-117 -14.5
q-62 0 -119.5 13.5t-109.5 43t-83.5 84t-31.5 127.5v319q0 72 30 126.5t80.5 85t108.5 45t121 14.5t120.5 -15t109 -45.5t82 -86.5t30.5 -130v-313zM1499 1470l-858 -1486h-233l858 1486h233zM760 893q0 -70 -31 -124t-82 -84.5t-108 -45t-117 -14.5q-62 0 -119.5 13.5
t-109.5 43t-83.5 84t-31.5 127.5v319q0 72 30 127t80 85.5t107.5 45.5t120.5 15q50 0 97 -9t92.5 -30t79 -52t54.5 -79.5t21 -108.5v-313zM2347 252v323q0 24 -19.5 41t-52.5 17q-34 0 -53.5 -17t-19.5 -41v-327q0 -26 18.5 -44t54.5 -18q35 0 53.5 20t18.5 46zM1561 252
v323q0 24 -19.5 41t-52.5 17q-34 0 -54 -17t-20 -41v-327q0 -25 19 -43.5t55 -18.5q35 0 53.5 20t18.5 46zM492 897v324q0 24 -20.5 40.5t-53.5 16.5q-34 0 -53 -16.5t-19 -40.5v-328q0 -25 19 -43.5t55 -18.5q35 0 53.5 20t18.5 46z" />
    <glyph glyph-name="guilsinglleft" unicode="&#x2039;" horiz-adv-x="716" 
d="M692 242l-188 -158l-479 444l479 449l184 -164l-307 -285z" />
    <glyph glyph-name="guilsinglright" unicode="&#x203a;" horiz-adv-x="716" 
d="M692 532l-479 -448l-184 164l307 284l-311 287l188 158z" />
    <glyph glyph-name="fraction" unicode="&#x2044;" horiz-adv-x="1208" 
d="M1210 1489l-944 -1563h-264l944 1563h264z" />
    <glyph glyph-name="Euro" unicode="&#x20ac;" horiz-adv-x="1550" 
d="M1493 453q0 -100 -37.5 -182t-98.5 -136t-143 -91t-168 -53t-176 -16q-97 0 -182.5 16.5t-164 54.5t-136 95t-94 142.5t-43.5 193.5h-172v201h170v121h-170v200h172q9 121 62.5 216t138.5 153t190 87.5t223 29.5q90 0 176.5 -16t169.5 -53.5t145 -92t100 -137.5t38 -185
v-90h-430v47q0 81 -55.5 125.5t-130.5 44.5q-141 0 -162 -129h262v-200h-266v-121h266v-201h-264q8 -72 46.5 -108.5t117.5 -36.5q75 0 130.5 44.5t55.5 125.5v47h430v-96z" />
    <glyph glyph-name="trademark" unicode="&#x2122;" horiz-adv-x="1439" 
d="M1352 825h-193v324l-65 -225h-138l-65 223v-322h-193v656h256l72 -232l70 232h256v-656zM639 1303h-168v-478h-213v478h-168v178h549v-178z" />
    <glyph glyph-name="partialdiff" unicode="&#x2202;" horiz-adv-x="1228" 
d="M1167 430q0 -98 -33.5 -177.5t-88 -130t-127.5 -84.5t-148.5 -48.5t-155.5 -14.5q-83 0 -158 12.5t-148.5 45t-127 82t-86.5 130t-33 183.5v152q0 99 31.5 180.5t87.5 137t125.5 91.5t153.5 53l-324 418h496l432 -573q104 -136 104 -299v-158zM737 412v200
q0 61 -34 101.5t-89 40.5q-61 0 -91.5 -41t-30.5 -107v-198q0 -132 124 -132q61 0 91 37.5t30 98.5z" />
    <glyph glyph-name="product" unicode="&#x220f;" 
 />
    <glyph glyph-name="summation" unicode="&#x2211;" 
 />
    <glyph glyph-name="minus" unicode="&#x2212;" horiz-adv-x="1232" 
d="M1069 541h-905v213h905v-213z" />
    <glyph glyph-name="radical" unicode="&#x221a;" 
 />
    <glyph glyph-name="infinity" unicode="&#x221e;" 
 />
    <glyph glyph-name="integral" unicode="&#x222b;" 
 />
    <glyph glyph-name="approxequal" unicode="&#x2248;" 
 />
    <glyph glyph-name="notequal" unicode="&#x2260;" 
 />
    <glyph glyph-name="lessequal" unicode="&#x2264;" 
 />
    <glyph glyph-name="greaterequal" unicode="&#x2265;" 
 />
    <glyph glyph-name="lozenge" unicode="&#x25ca;" 
 />
    <glyph glyph-name="apple" unicode="&#xf8ff;" horiz-adv-x="1232" 
d="M1069 541h-905v213h905v-213z" />
    <glyph glyph-name="fi" unicode="&#xfb01;" horiz-adv-x="1454" 
d="M1360 1204h-426v281h426v-281zM1360 0h-426v1104h426v-1104zM801 784h-203v-784h-424v784h-131v295h131v92q0 72 23 129t60 93t87.5 60t102 34t106.5 10q132 0 196 -15q23 -5 44 -12v-251q-62 8 -117 8q-34 0 -56 -19.5t-22 -52.5v-76h203v-295z" />
    <glyph glyph-name="fl" unicode="&#xfb02;" horiz-adv-x="1558" 
d="M1509 14q-119 -39 -233 -39q-160 0 -257 76t-97 219v1190h428v-1057q0 -39 15 -57t65 -18q17 0 79 8v-322zM801 784h-203v-784h-424v784h-131v295h131v92q0 72 23 129t60 93t87.5 60t102 34t106.5 10q132 0 196 -15q23 -5 44 -12v-251q-62 8 -117 8q-34 0 -56 -19.5
t-22 -52.5v-76h203v-295z" />
    <glyph glyph-name="LF" 
 />
    <glyph glyph-name="CR" 
 />
    <glyph glyph-name="RS" 
 />
    <glyph glyph-name="US" 
 />
    </font>
</defs>
</svg>
